<svg width="233" height="39" viewBox="0 0 233 39" fill="none" xmlns="http://www.w3.org/2000/svg">
<path fill-rule="evenodd" clip-rule="evenodd" d="M18.3966 19.8528C18.4394 14.3941 20.2447 10.7836 22.3937 8.50544C26.004 4.72308 31.0762 5.1959 34.6008 8.63483C36.9217 11.4284 38.5979 14.9099 38.8128 18.7355C38.8128 21.4002 38.4261 25.0963 36.2341 28.1483C33.9128 31.372 30.0011 33.8224 25.1873 31.458C23.554 33.736 22.8237 34.4668 21.6631 35.5414C25.0583 37.2607 28.8839 35.9282 29.9157 35.6273C28.0673 37.4326 22.1789 38.679 19.9439 38.765C15.6458 38.8509 11.8633 37.5616 8.76845 35.5414C15.1728 37.6905 17.6658 35.7133 18.6543 35.4126C25.8322 31.2432 26.778 23.1196 26.778 19.1223C26.6489 15.5977 24.9727 10.1392 23.7691 9.70923C22.3077 9.70923 19.9439 15.8125 20.1585 19.7669C20.0298 25.2257 17.9236 28.4061 15.7746 30.5984C12.2497 34.1657 7.52168 32.9626 4.51308 30.1686C1.97749 27.6758 0.0859041 23.9361 0 19.6381C0 15.6836 1.03173 11.6434 3.95442 8.84956C7.39298 5.75468 10.4879 5.4105 13.4965 7.21606C14.5709 5.3246 15.7746 4.42226 17.0209 3.133C15.6458 2.01499 11.2613 2.10127 8.98324 3.04672C8.25246 2.9612 14.3562 -0.391585 19.5142 0.0379984C25.2738 0.167012 27.4224 1.54249 29.7868 3.04672C25.2738 1.84344 23.3822 1.75728 20.8034 2.83193C14.8288 5.32453 11.777 12.5028 11.9921 19.3369C11.9921 23.6351 13.8405 28.8791 14.915 29.0941C15.5167 29.3951 18.6543 24.2798 18.3966 19.8528V19.8528Z" fill="white"/>
<path fill-rule="evenodd" clip-rule="evenodd" d="M62.7294 4.16089V10.7726H63.0139C64.0803 10.7726 64.7914 10.4882 65.2891 9.8484C65.7151 9.13753 66.0709 8.2132 66.2128 6.93358H66.6396V15.5356H66.2128C66.0709 14.5403 65.8574 13.8296 65.5732 13.1895C65.2891 12.6207 64.8624 12.1942 64.5066 11.9809C64.0803 11.839 63.5116 11.6965 62.7294 11.6965V16.3176C62.7294 17.2418 62.7294 17.7395 62.8004 17.9527C62.8719 18.166 63.0138 18.3082 63.2271 18.4504C63.4405 18.5926 63.796 18.6637 64.2227 18.6637H65.2177C66.7815 18.6637 67.9903 18.3082 68.9144 17.5973C69.8385 16.8863 70.4786 15.8199 70.905 14.327H71.3317L70.6206 19.5879H56.4735V19.0903H56.9712C57.4686 19.0903 57.824 19.0188 58.1797 18.8769C58.3216 18.7348 58.5351 18.5926 58.606 18.3082C58.7483 18.0951 58.7483 17.5973 58.7483 16.7441V6.00937C58.7483 5.22723 58.7484 4.80067 58.6774 4.65854C58.606 4.37398 58.4636 4.16083 58.2506 3.9478C57.9662 3.73427 57.54 3.66324 56.9712 3.66324H56.4734V3.16553H70.1229V7.99979H69.6965C69.4831 6.8623 69.1278 6.00931 68.7011 5.5116C68.2747 4.94292 67.706 4.58739 66.9239 4.37398C66.4975 4.23192 65.6441 4.16083 64.3646 4.16083H62.7294L62.7294 4.16089Z" fill="white"/>
<path fill-rule="evenodd" clip-rule="evenodd" d="M84.1995 8.28467V17.1C84.1995 17.9531 84.2704 18.5219 84.4124 18.7352C84.5549 18.9484 84.9103 19.0907 85.408 19.1618V19.5883H80.7868V18.0244C80.2894 18.6641 79.7202 19.1618 79.223 19.4461C78.6542 19.7306 78.0142 19.8725 77.3744 19.8725C76.7347 19.8725 76.1655 19.7306 75.6682 19.304C75.171 18.9484 74.8862 18.4508 74.6731 17.9531C74.5308 17.4555 74.4599 16.5313 74.4599 15.1806V10.7019C74.4599 9.84878 74.3889 9.35107 74.1754 9.13791C74.0331 8.92463 73.7487 8.78238 73.251 8.71129V8.28467H77.8012V15.9625C77.8012 16.8156 77.8722 17.3134 77.9432 17.5266C78.0141 17.8111 78.1564 17.9531 78.2989 18.0954C78.4409 18.1664 78.6542 18.2375 78.8672 18.2375C79.1516 18.2375 79.4363 18.1664 79.6493 18.0244C79.9337 17.8111 80.3604 17.3844 80.7868 16.7445V10.7019C80.7868 9.84878 80.7158 9.35107 80.5738 9.13791C80.4314 8.92463 80.0761 8.78238 79.5782 8.71129V8.28467H84.1995Z" fill="white"/>
<path fill-rule="evenodd" clip-rule="evenodd" d="M91.7349 8.2846V10.844C92.446 9.63543 93.1567 8.9245 93.6544 8.49788C94.2232 8.1421 94.7919 7.9292 95.2896 7.9292C95.7873 7.9292 96.1427 8.07138 96.4271 8.35569C96.6404 8.64013 96.7824 8.99547 96.7824 9.56427C96.7824 10.0617 96.6404 10.4885 96.4271 10.7729C96.1426 11.0572 95.8583 11.2706 95.432 11.2706C95.0052 11.2706 94.6499 11.1283 94.3651 10.8439C94.0097 10.5595 93.8678 10.4173 93.7968 10.3462C93.7254 10.3462 93.6544 10.2753 93.5124 10.2753C93.2991 10.2753 93.0856 10.3462 92.8727 10.5596C92.517 10.844 92.3036 11.1995 92.0906 11.6968C91.8768 12.479 91.7348 13.4031 91.7348 14.3273V17.5976C91.7348 18.0242 91.7348 18.3085 91.8062 18.4507C91.9481 18.664 92.0191 18.8772 92.2325 18.9483C92.4459 19.0191 92.7302 19.0906 93.2281 19.1617V19.5882H87.1141V19.1617C87.6113 19.0906 87.8961 18.9483 88.1091 18.7351C88.2514 18.5218 88.3934 17.8818 88.3934 16.8865V10.7017C88.3934 9.99058 88.3225 9.6353 88.2515 9.42203C88.1805 9.20887 88.0382 9.0665 87.8961 8.92444C87.7538 8.85334 87.4694 8.78225 87.1141 8.71116V8.28454H91.7348L91.7349 8.2846Z" fill="white"/>
<path fill-rule="evenodd" clip-rule="evenodd" d="M102.896 7.9292C103.892 7.9292 104.816 8.21351 105.598 8.71122C106.451 9.20894 107.091 9.9198 107.517 10.844C108.015 11.7678 108.228 12.8345 108.228 13.9009C108.228 15.536 107.802 16.8867 107.02 17.9531C106.024 19.2327 104.673 19.8724 102.896 19.8724C101.261 19.8724 99.9103 19.3039 98.9862 18.0954C98.0621 16.9583 97.6354 15.536 97.6354 13.9719C97.6354 12.3368 98.0621 10.9151 99.0571 9.77762C99.9817 8.56903 101.261 7.9292 102.896 7.9292H102.896ZM102.967 8.78231C102.541 8.78231 102.185 8.9245 101.901 9.28003C101.616 9.56434 101.404 10.2042 101.333 11.1283C101.19 11.9813 101.19 13.2609 101.19 14.8962C101.19 15.7492 101.19 16.6024 101.333 17.3133C101.404 17.882 101.616 18.3086 101.901 18.593C102.185 18.9484 102.541 19.0907 102.896 19.0907C103.252 19.0907 103.536 18.9484 103.821 18.7351C104.105 18.5219 104.319 18.0954 104.39 17.5977C104.603 16.8867 104.673 15.3227 104.673 12.9766C104.673 11.6257 104.603 10.7018 104.461 10.133C104.247 9.63537 104.034 9.27997 103.749 9.06656C103.536 8.85341 103.252 8.78225 102.967 8.78225V8.78231Z" fill="white"/>
<path fill-rule="evenodd" clip-rule="evenodd" d="M114.271 18.4508V22.645C114.271 23.2138 114.342 23.5692 114.413 23.7826C114.555 23.9958 114.698 24.1379 114.84 24.2802C115.053 24.3513 115.408 24.4224 115.977 24.4224V24.8489H109.579V24.4224C110.077 24.4224 110.432 24.2802 110.646 23.9958C110.858 23.7826 110.93 23.2849 110.93 22.5739V10.6304C110.93 9.84865 110.858 9.35093 110.646 9.06656C110.432 8.85341 110.077 8.78225 109.579 8.71116V8.28454H114.271V9.77755C114.698 9.20887 115.124 8.78225 115.48 8.49788C116.119 8.1421 116.759 7.9292 117.399 7.9292C118.252 7.9292 119.034 8.21351 119.674 8.71122C120.385 9.28003 120.882 9.99071 121.238 10.9151C121.594 11.8393 121.735 12.8345 121.735 13.8299C121.735 15.0382 121.594 16.0335 121.238 17.0289C120.882 17.9531 120.314 18.6641 119.603 19.1618C118.963 19.6594 118.181 19.8724 117.328 19.8724C116.688 19.8724 116.119 19.7304 115.551 19.5171C115.195 19.3038 114.769 18.9483 114.271 18.4507L114.271 18.4508ZM114.271 17.1711C114.982 18.1664 115.693 18.6641 116.546 18.6641C116.972 18.6641 117.328 18.4508 117.612 17.9531C118.039 17.3134 118.252 16.0336 118.252 14.1141C118.252 12.1946 117.968 10.8441 117.541 10.133C117.256 9.63543 116.83 9.42215 116.333 9.42215C115.48 9.42215 114.84 9.99071 114.271 11.1995V17.1711Z" fill="white"/>
<path fill-rule="evenodd" clip-rule="evenodd" d="M133.252 13.5454H127.067C127.138 15.0382 127.494 16.1757 128.276 17.0999C128.774 17.7398 129.485 18.0954 130.266 18.0954C130.693 18.0954 131.191 17.9531 131.546 17.6688C131.973 17.3843 132.399 16.8866 132.826 16.1757L133.252 16.4602C132.613 17.7398 131.973 18.593 131.191 19.0907C130.48 19.6594 129.627 19.8724 128.632 19.8724C126.996 19.8724 125.717 19.2328 124.863 17.9531C124.153 16.9583 123.797 15.6781 123.797 14.114C123.797 12.1945 124.295 10.7018 125.29 9.63537C126.356 8.49788 127.565 7.9292 128.916 7.9292C130.053 7.9292 131.048 8.42679 131.902 9.351C132.755 10.2753 133.181 11.6969 133.252 13.5454H133.252ZM130.266 12.6921C130.266 11.4126 130.195 10.4885 130.053 10.0617C129.911 9.56428 129.698 9.20887 129.413 8.9245C129.2 8.78231 128.987 8.71122 128.703 8.71122C128.276 8.71122 127.991 8.9245 127.707 9.351C127.21 10.0617 126.996 11.0572 126.996 12.2659V12.6922H130.266L130.266 12.6921Z" fill="white"/>
<path fill-rule="evenodd" clip-rule="evenodd" d="M140.859 17.8818C139.508 19.0905 138.3 19.7303 137.162 19.7303C136.522 19.7303 136.025 19.517 135.599 19.0906C135.172 18.6639 134.959 18.1662 134.959 17.5264C134.959 16.6733 135.314 15.8914 136.025 15.1803C136.807 14.4694 138.371 13.5452 140.859 12.4077V11.2705C140.859 10.4173 140.859 9.91968 140.717 9.70678C140.646 9.49312 140.504 9.2799 140.22 9.0665C139.935 8.92444 139.651 8.85334 139.366 8.85334C138.798 8.85334 138.371 8.99541 138.087 9.20887C137.873 9.35093 137.731 9.49318 137.731 9.70684C137.731 9.84865 137.873 10.0617 138.087 10.3462C138.371 10.7018 138.513 11.0571 138.513 11.3415C138.513 11.7678 138.371 12.0523 138.087 12.3367C137.802 12.621 137.447 12.7633 136.95 12.7633C136.451 12.7633 136.025 12.621 135.67 12.3367C135.314 11.9812 135.172 11.6257 135.172 11.2706C135.172 10.6304 135.385 10.133 135.812 9.56428C136.309 9.06656 136.95 8.64007 137.731 8.35569C138.584 8.07138 139.437 7.9292 140.291 7.9292C141.428 7.9292 142.21 8.14216 142.85 8.64007C143.49 9.06656 143.916 9.56427 144.058 10.133C144.201 10.4174 144.272 11.1995 144.272 12.4078V16.8155C144.272 17.3132 144.272 17.6688 144.272 17.8109C144.343 17.8819 144.414 18.0242 144.485 18.0954C144.556 18.1663 144.627 18.1663 144.769 18.1663C144.983 18.1663 145.196 18.0243 145.409 17.7398L145.764 18.0243C145.338 18.593 144.983 19.0192 144.485 19.3039C144.058 19.5883 143.632 19.7305 143.063 19.7305C142.423 19.7305 141.926 19.5883 141.57 19.2328C141.215 18.9484 140.931 18.5219 140.859 17.882L140.859 17.8818ZM140.859 17.0287V13.2607C139.935 13.8297 139.153 14.3983 138.727 15.0381C138.371 15.5358 138.229 15.9623 138.229 16.3889C138.229 16.7443 138.371 17.0998 138.655 17.3842C138.869 17.5975 139.082 17.6686 139.508 17.6686C139.864 17.6686 140.362 17.4553 140.859 17.0287L140.859 17.0287Z" fill="white"/>
<path fill-rule="evenodd" clip-rule="evenodd" d="M151.594 8.2846V9.7069C152.234 9.13784 152.732 8.64013 153.301 8.35569C153.798 8.07138 154.367 7.9292 155.007 7.9292C155.717 7.9292 156.357 8.14216 156.855 8.56897C157.282 8.9245 157.637 9.49318 157.779 10.0617C157.921 10.4885 157.992 11.4127 157.992 12.6921V17.0999C157.992 17.9531 158.063 18.5219 158.206 18.7351C158.348 18.9483 158.703 19.0907 159.201 19.1618V19.5883H153.513V19.1618C153.94 19.0907 154.224 18.8772 154.438 18.593C154.509 18.3797 154.58 17.882 154.58 17.0999V12.0523C154.58 11.1283 154.58 10.5596 154.509 10.3463C154.438 10.0617 154.296 9.9198 154.154 9.77762C153.94 9.63543 153.798 9.56434 153.584 9.56434C152.874 9.56434 152.234 10.0618 151.594 11.0572V17.1C151.594 17.9531 151.665 18.4508 151.879 18.7352C152.021 18.9484 152.305 19.0907 152.732 19.1618V19.5883H147.044V19.1618C147.471 19.0907 147.827 18.9484 148.04 18.6641C148.182 18.5219 148.253 17.9531 148.253 17.1V10.7018C148.253 9.84871 148.182 9.351 148.04 9.13784C147.827 8.92456 147.542 8.78232 147.044 8.71122V8.2846H151.594H151.594Z" fill="white"/>
<path fill-rule="evenodd" clip-rule="evenodd" d="M177.116 10.9146C178.68 11.2701 179.747 11.6964 180.386 12.1941C181.31 12.9052 181.737 13.9004 181.737 15.0378C181.737 16.2464 181.239 17.3128 180.244 18.0949C179.036 19.0902 177.258 19.5878 174.912 19.5878H166.595V19.0902C167.377 19.0902 167.874 19.0188 168.158 18.8768C168.443 18.7348 168.656 18.5925 168.727 18.3792C168.87 18.0949 168.87 17.5972 168.87 16.6731V6.08078C168.87 5.15607 168.87 4.65848 168.727 4.37398C168.656 4.16083 168.443 4.01883 168.158 3.87639C167.874 3.73421 167.377 3.66324 166.595 3.66324V3.16553H174.486C176.334 3.16553 177.685 3.37906 178.467 3.66324C179.249 4.01889 179.889 4.51623 180.316 5.15613C180.742 5.867 180.955 6.57805 180.955 7.28892C180.955 8.07107 180.671 8.78194 180.102 9.42171C179.533 10.0614 178.538 10.4881 177.116 10.9147L177.116 10.9146ZM172.709 10.5591C173.846 10.5591 174.699 10.4169 175.268 10.2037C175.765 9.91924 176.192 9.56377 176.476 9.06606C176.761 8.63956 176.903 7.99966 176.903 7.28879C176.903 6.57793 176.761 6.00918 176.476 5.51153C176.192 5.08491 175.837 4.72938 175.268 4.44514C174.771 4.23186 173.917 4.08961 172.709 4.08961V10.5591V10.5591ZM172.709 11.4833V17.3839C172.709 17.8105 172.78 18.0949 173.064 18.3081C173.277 18.5925 173.562 18.6636 173.988 18.6636C174.628 18.6636 175.268 18.5214 175.765 18.237C176.334 17.9526 176.761 17.5261 177.045 17.0284C177.329 16.4597 177.472 15.8198 177.472 15.18C177.472 14.398 177.329 13.7581 176.974 13.1183C176.618 12.5497 176.121 12.123 175.481 11.8388C174.841 11.6253 173.917 11.4833 172.709 11.4833Z" fill="white"/>
<path fill-rule="evenodd" clip-rule="evenodd" d="M189.628 17.8818C188.277 19.0905 187.069 19.7303 185.931 19.7303C185.291 19.7303 184.794 19.517 184.367 19.0906C183.941 18.6639 183.728 18.1662 183.728 17.5264C183.728 16.6733 184.083 15.8914 184.794 15.1803C185.576 14.4694 187.14 13.5452 189.628 12.4077V11.2705C189.628 10.4173 189.628 9.91968 189.486 9.70678C189.415 9.49312 189.273 9.2799 188.989 9.0665C188.704 8.92444 188.42 8.85334 188.136 8.85334C187.638 8.85334 187.14 8.99541 186.856 9.20887C186.642 9.35093 186.5 9.49318 186.5 9.70684C186.5 9.84865 186.642 10.0617 186.856 10.3462C187.14 10.7018 187.354 11.0571 187.354 11.3415C187.354 11.7678 187.14 12.0523 186.856 12.3367C186.571 12.621 186.216 12.7633 185.718 12.7633C185.221 12.7633 184.794 12.621 184.439 12.3367C184.083 11.9812 183.941 11.6257 183.941 11.2706C183.941 10.6304 184.154 10.133 184.652 9.56428C185.079 9.06656 185.718 8.64007 186.571 8.35569C187.354 8.07138 188.207 7.9292 189.131 7.9292C190.197 7.9292 191.05 8.14216 191.619 8.64007C192.259 9.06656 192.685 9.56427 192.827 10.133C192.97 10.4174 193.041 11.1995 193.041 12.4078V16.8155C193.041 17.3132 193.041 17.6688 193.112 17.8109C193.112 17.8819 193.183 18.0242 193.254 18.0954C193.325 18.1663 193.467 18.1663 193.538 18.1663C193.751 18.1663 193.965 18.0243 194.178 17.7398L194.534 18.0243C194.178 18.593 193.751 19.0192 193.325 19.3039C192.899 19.5883 192.401 19.7305 191.832 19.7305C191.192 19.7305 190.695 19.5883 190.34 19.2328C189.984 18.9484 189.771 18.5219 189.628 17.882L189.628 17.8818ZM189.628 17.0287V13.2607C188.704 13.8297 187.993 14.3983 187.495 15.0381C187.14 15.5358 186.998 15.9623 186.998 16.3889C186.998 16.7443 187.14 17.0998 187.424 17.3842C187.638 17.5975 187.922 17.6686 188.278 17.6686C188.633 17.6686 189.131 17.4553 189.628 17.0287L189.628 17.0287Z" fill="white"/>
<path fill-rule="evenodd" clip-rule="evenodd" d="M200.434 8.2846V9.7069C201.003 9.13784 201.571 8.64013 202.069 8.35569C202.638 8.07138 203.207 7.9292 203.776 7.9292C204.486 7.9292 205.126 8.14216 205.624 8.56897C206.121 8.9245 206.406 9.49318 206.548 10.0617C206.69 10.4885 206.761 11.4127 206.761 12.6921V17.0999C206.761 17.9531 206.832 18.5219 206.975 18.7351C207.188 18.9483 207.472 19.0907 207.97 19.1618V19.5883H202.283V19.1618C202.709 19.0907 202.993 18.8772 203.207 18.593C203.349 18.3797 203.42 17.882 203.42 17.0999V12.0523C203.42 11.1283 203.349 10.5596 203.278 10.3463C203.207 10.0617 203.064 9.9198 202.922 9.77762C202.709 9.63543 202.567 9.56434 202.354 9.56434C201.643 9.56434 201.003 10.0618 200.434 11.0572V17.1C200.434 17.9531 200.505 18.4508 200.647 18.7352C200.79 18.9484 201.074 19.0907 201.5 19.1618V19.5883H195.813V19.1618C196.311 19.0907 196.595 18.9484 196.808 18.6641C196.951 18.5219 197.022 17.9531 197.022 17.1V10.7018C197.022 9.84871 196.951 9.351 196.808 9.13784C196.666 8.92456 196.311 8.78232 195.813 8.71122V8.2846H200.434H200.434Z" fill="white"/>
<path fill-rule="evenodd" clip-rule="evenodd" d="M214.155 3.16553V13.9715L216.714 11.4123C217.283 10.8436 217.639 10.4881 217.781 10.275C217.923 9.99033 217.923 9.77724 217.923 9.56396C217.923 9.35068 217.852 9.20856 217.71 9.06625C217.496 8.92419 217.141 8.78194 216.643 8.71085V8.28422H221.691V8.71085C221.193 8.78194 220.838 8.85303 220.411 9.06625C220.055 9.27965 219.345 9.91949 218.349 10.9148L217.07 12.1231L219.771 16.0332C220.838 17.5973 221.477 18.4505 221.62 18.6637C221.904 18.948 222.259 19.0904 222.686 19.1615V19.5879H216.857V19.1615C217.141 19.1615 217.283 19.0904 217.425 18.9481C217.567 18.877 217.567 18.806 217.567 18.6637C217.567 18.4505 217.425 18.166 217.07 17.6684L214.866 14.3982L214.155 15.109V17.0996C214.155 17.9527 214.226 18.5216 214.368 18.7348C214.51 18.948 214.866 19.0904 215.363 19.1615V19.5879H209.534V19.1615C210.032 19.0904 210.316 18.948 210.529 18.6637C210.672 18.5216 210.742 17.9527 210.742 17.0996V5.65385C210.742 4.8006 210.672 4.23192 210.529 4.01889C210.387 3.87646 210.032 3.73427 209.534 3.66324V3.16553H214.155Z" fill="white"/>
<path fill-rule="evenodd" clip-rule="evenodd" d="M49.9328 30.7492V34.3747C49.9328 34.9435 50.0041 35.228 50.0751 35.37C50.217 35.5833 50.4301 35.6546 50.7149 35.6546H51.2126V35.8678H47.8711V35.6546H48.0845C48.2979 35.6546 48.4399 35.6546 48.5823 35.5123C48.7242 35.4412 48.7957 35.3701 48.8662 35.228C48.8662 35.086 48.9377 34.8014 48.9377 34.3747V30.7492H47.8002V30.3227H48.9377V29.9673C48.9377 29.3982 49.0086 28.9009 49.1509 28.5454C49.364 28.1187 49.6483 27.8345 50.0041 27.6212C50.3595 27.3367 50.7862 27.2656 51.2125 27.2656C51.6393 27.2656 52.0656 27.3367 52.4213 27.6212C52.6343 27.8344 52.7767 28.0478 52.7767 28.2609C52.7767 28.4031 52.7053 28.4742 52.6343 28.6165C52.4924 28.6875 52.4213 28.7585 52.279 28.7585C52.2076 28.7585 52.0656 28.7585 51.995 28.6876C51.8522 28.6165 51.7102 28.4743 51.5679 28.2609C51.4259 27.9765 51.2834 27.8344 51.2124 27.7632C51.0705 27.6922 50.928 27.6922 50.7861 27.6922C50.5728 27.6922 50.43 27.6922 50.2884 27.8344C50.1459 27.9054 50.075 28.0477 50.0039 28.2609C49.9326 28.4742 49.9326 29.0431 49.9326 29.8956V30.3226H51.3544V30.7491H49.9326L49.9328 30.7492Z" fill="white"/>
<path fill-rule="evenodd" clip-rule="evenodd" d="M54.625 30.1094C55.4782 30.1094 56.1178 30.4649 56.687 31.1047C57.1132 31.6735 57.3266 32.3133 57.3266 33.0239C57.3266 33.5215 57.1842 34.0192 56.9712 34.517C56.6869 35.0147 56.4026 35.4412 55.9758 35.6546C55.5491 35.9389 55.0517 36.0811 54.554 36.0811C53.7009 36.0811 53.0611 35.7255 52.5634 35.0147C52.1367 34.517 51.9238 33.8772 51.9238 33.1663C51.9238 32.6688 52.0657 32.0999 52.2792 31.6023C52.5635 31.1047 52.9188 30.7492 53.2746 30.536C53.701 30.2516 54.1272 30.1094 54.625 30.1094ZM54.4121 30.536C54.1987 30.536 53.9852 30.6071 53.7719 30.7491C53.5585 30.8201 53.4165 31.1047 53.2746 31.3888C53.1322 31.7443 53.0612 32.0998 53.0612 32.6687C53.0612 33.4505 53.2031 34.1615 53.5585 34.7302C53.8433 35.299 54.2696 35.6545 54.8383 35.6545C55.1937 35.6545 55.5491 35.4411 55.7624 35.1568C56.0468 34.8013 56.1892 34.2326 56.1892 33.4505C56.1892 32.4552 55.9759 31.6734 55.5491 31.1046C55.2647 30.7491 54.9094 30.5359 54.4121 30.5359L54.4121 30.536Z" fill="white"/>
<path fill-rule="evenodd" clip-rule="evenodd" d="M59.7435 30.1094V31.3889C60.2412 30.536 60.739 30.1094 61.2367 30.1094C61.4497 30.1094 61.5921 30.1805 61.7344 30.3227C61.8764 30.4648 61.9474 30.6071 61.9474 30.8201C61.9474 30.9623 61.9474 31.1047 61.8055 31.2467C61.7345 31.3178 61.5922 31.3888 61.4497 31.3888C61.3078 31.3888 61.1653 31.3178 60.9524 31.1758C60.81 31.0337 60.6681 30.9624 60.5971 30.9624C60.5256 30.9624 60.3837 31.0337 60.3122 31.1047C60.1703 31.2467 59.9569 31.5313 59.7435 31.8866V34.588C59.7435 34.8725 59.8145 35.1569 59.886 35.299C59.9569 35.37 60.0283 35.5122 60.1703 35.5833C60.3122 35.6546 60.4547 35.6546 60.7391 35.6546V35.8677H57.8954V35.6546C58.1798 35.6546 58.3932 35.6546 58.5351 35.5123C58.6061 35.4412 58.6774 35.3701 58.7484 35.2279C58.7484 35.1569 58.7484 34.9435 58.7484 34.6593V32.4553C58.7484 31.8155 58.7484 31.4603 58.7484 31.3179C58.6774 31.1758 58.6774 31.1047 58.6061 31.0337C58.5351 30.9624 58.3931 30.9624 58.3217 30.9624C58.1797 30.9624 58.0377 30.9624 57.8953 31.0337L57.824 30.8202L59.5305 30.1094H59.7435V30.1094Z" fill="white"/>
<path fill-rule="evenodd" clip-rule="evenodd" d="M73.4642 35.8682H71.2608L68.4168 32.0294C68.2749 32.0294 68.0614 32.0294 67.9195 32.0294C67.9195 32.0294 67.8481 32.0294 67.7772 32.0294C67.7062 32.0294 67.6347 32.0294 67.5638 32.0294V34.4463C67.5638 34.944 67.6347 35.2995 67.7772 35.3705C67.9195 35.5837 68.1324 35.655 68.4168 35.655H68.7722V35.8682H65.2179V35.655H65.5733C65.9291 35.655 66.142 35.5127 66.2843 35.2995C66.3552 35.1573 66.4262 34.8729 66.4262 34.4463V29.1145C66.4262 28.5458 66.3552 28.2614 66.2843 28.1192C66.071 27.9059 65.8575 27.8349 65.5733 27.8349H65.2179V27.6216H68.2749C69.128 27.6216 69.7676 27.6927 70.1944 27.8349C70.6208 27.9058 70.9765 28.1903 71.2609 28.5457C71.5452 28.83 71.6873 29.2566 71.6873 29.7541C71.6873 30.2519 71.5452 30.6785 71.1894 31.105C70.8342 31.4607 70.3363 31.6738 69.6253 31.8869L71.3319 34.233C71.7582 34.8017 72.0425 35.1573 72.3269 35.2994C72.6112 35.5126 73.038 35.5837 73.4643 35.655V35.8681L73.4642 35.8682ZM67.5636 31.6027C67.6346 31.6027 67.7061 31.6027 67.777 31.6739C67.848 31.6739 67.9194 31.6739 67.9194 31.6739C68.7011 31.6739 69.3412 31.4608 69.6966 31.1051C70.1229 30.8206 70.3362 30.3231 70.3362 29.8255C70.3362 29.3279 70.1229 28.9014 69.8385 28.5459C69.4831 28.2614 69.0563 28.1192 68.5591 28.1192C68.2747 28.1192 67.9903 28.1192 67.5636 28.1903V31.6027H67.5636Z" fill="white"/>
<path fill-rule="evenodd" clip-rule="evenodd" d="M74.6731 32.3842C74.6731 33.2375 74.8861 33.8772 75.2419 34.3748C75.6681 34.8015 76.1654 35.0861 76.7346 35.0861C77.09 35.0861 77.3743 34.9436 77.6587 34.7303C77.9431 34.5881 78.1564 34.2327 78.3698 33.735L78.5118 33.8772C78.4408 34.3748 78.2273 34.9436 77.8012 35.3701C77.3743 35.7967 76.8766 36.0811 76.2369 36.0811C75.5971 36.0811 75.0285 35.7966 74.5307 35.299C74.033 34.7302 73.8201 34.0192 73.8201 33.1662C73.8201 32.2422 74.0331 31.4603 74.5307 30.9624C75.0285 30.3936 75.6681 30.1094 76.3793 30.1094C77.0191 30.1094 77.5163 30.3227 77.9431 30.7491C78.2989 31.1758 78.5118 31.7443 78.5118 32.3841H74.6731V32.3842ZM74.6731 32.0291H77.2323C77.2323 31.6735 77.161 31.4604 77.161 31.318C77.0191 31.0338 76.8766 30.8913 76.6632 30.7493C76.4502 30.6072 76.2369 30.5361 76.0235 30.5361C75.7396 30.5361 75.3839 30.6783 75.1709 30.9625C74.8861 31.2469 74.7441 31.6024 74.6731 32.0291V32.0291Z" fill="white"/>
<path fill-rule="evenodd" clip-rule="evenodd" d="M83.9861 33.735C83.8437 34.517 83.5592 35.0861 83.133 35.4412C82.7061 35.8678 82.2084 36.0811 81.6401 36.0811C81.071 36.0811 80.5022 35.7966 80.0045 35.2279C79.5782 34.7302 79.2939 34.0192 79.2939 33.0952C79.2939 32.2422 79.5782 31.5313 80.0761 30.9624C80.6447 30.3936 81.2134 30.1094 81.9956 30.1094C82.4933 30.1094 82.9911 30.2516 83.3464 30.6071C83.7018 30.8913 83.8437 31.1758 83.8437 31.4603C83.8437 31.6023 83.7728 31.7444 83.7018 31.8866C83.6308 31.9578 83.4884 32.029 83.2751 32.029C83.0621 32.029 82.8487 31.8866 82.7772 31.7444C82.7063 31.6735 82.6353 31.5314 82.6353 31.2468C82.5643 31.0338 82.4934 30.8202 82.351 30.7492C82.2085 30.6071 81.9956 30.5361 81.7822 30.5361C81.3554 30.5361 81.0712 30.6782 80.7867 30.9624C80.4313 31.3889 80.2894 31.8866 80.2894 32.5978C80.2894 33.2374 80.4313 33.8061 80.7867 34.3038C81.1425 34.8725 81.5689 35.086 82.1376 35.086C82.4934 35.086 82.8487 34.9436 83.2041 34.7302C83.4171 34.517 83.6308 34.1616 83.8437 33.664L83.9862 33.7349L83.9861 33.735Z" fill="white"/>
<path fill-rule="evenodd" clip-rule="evenodd" d="M87.5403 30.1094C88.3934 30.1094 89.0336 30.4649 89.6023 31.1047C90.0286 31.6735 90.2421 32.3133 90.2421 33.0239C90.2421 33.5215 90.1001 34.0192 89.8867 34.517C89.6022 35.0147 89.318 35.4412 88.8911 35.6546C88.4644 35.9389 87.9671 36.0811 87.4693 36.0811C86.6162 36.0811 85.9765 35.7255 85.4788 35.0147C85.0525 34.517 84.8391 33.8772 84.8391 33.1663C84.8391 32.6688 84.9811 32.0999 85.1945 31.6023C85.4789 31.1047 85.8341 30.7492 86.19 30.536C86.6162 30.2516 87.0426 30.1094 87.5403 30.1094ZM87.3274 30.536C87.1141 30.536 86.9006 30.6071 86.6877 30.7491C86.4739 30.8201 86.3319 31.1047 86.19 31.3888C86.0476 31.7443 85.9766 32.0998 85.9766 32.6687C85.9766 33.4505 86.1185 34.1615 86.4739 34.7302C86.7582 35.299 87.1851 35.6545 87.7537 35.6545C88.1091 35.6545 88.4644 35.4411 88.6782 35.1568C88.9621 34.8013 89.1046 34.2326 89.1046 33.4505C89.1046 32.4552 88.8912 31.6734 88.4644 31.1046C88.1805 30.7491 87.8248 30.5359 87.3274 30.5359L87.3274 30.536Z" fill="white"/>
<path fill-rule="evenodd" clip-rule="evenodd" d="M92.6589 31.3178C93.299 30.5359 93.9391 30.1094 94.5789 30.1094C94.8628 30.1094 95.1476 30.1805 95.3606 30.3936C95.574 30.536 95.716 30.7492 95.8583 31.1047C95.9292 31.3889 96.0007 31.7443 96.0007 32.2422V34.588C96.0007 34.9436 96.0007 35.2279 96.0717 35.3701C96.1426 35.4412 96.2136 35.5123 96.2846 35.5833C96.4271 35.6546 96.5694 35.6546 96.8533 35.6546V35.8677H94.0812V35.6546H94.2231C94.4364 35.6546 94.6499 35.6546 94.7208 35.5123C94.8628 35.4412 94.9341 35.3701 94.9341 35.2279C95.0051 35.1569 95.0051 34.9435 95.0051 34.588V32.3133C95.0051 31.8154 94.9341 31.4603 94.7918 31.2467C94.6499 31.0337 94.4364 30.8912 94.1522 30.8912C93.6543 30.8912 93.1566 31.1758 92.6589 31.6734V34.588C92.6589 35.0146 92.7302 35.2279 92.7302 35.299C92.8012 35.441 92.8727 35.5121 93.0147 35.5833C93.0856 35.6545 93.2991 35.6545 93.5834 35.6545V35.8677H90.8108V35.6545H90.9527C91.2375 35.6545 91.4504 35.5833 91.5219 35.4411C91.5929 35.299 91.6638 35.0146 91.6638 34.588V32.5264C91.6638 31.8865 91.6638 31.4603 91.5929 31.3178C91.5929 31.1758 91.5219 31.1047 91.5219 31.0336C91.4504 30.9623 91.3085 30.9623 91.2375 30.9623C91.0952 30.9623 90.9527 30.9623 90.8107 31.0336L90.7398 30.8201L92.4459 30.1094H92.6589V31.3178Z" fill="white"/>
<path fill-rule="evenodd" clip-rule="evenodd" d="M100.906 30.1094V32.029H100.693C100.55 31.4603 100.337 31.0337 100.124 30.8202C99.8393 30.6072 99.555 30.4649 99.1996 30.4649C98.9152 30.4649 98.7019 30.6071 98.4885 30.7492C98.3466 30.8913 98.2042 31.0338 98.2042 31.2468C98.2042 31.4603 98.2752 31.6735 98.4175 31.8155C98.5599 31.9578 98.7729 32.171 99.1996 32.3133L100.053 32.7397C100.906 33.1663 101.333 33.735 101.333 34.3748C101.333 34.8725 101.119 35.2991 100.764 35.5833C100.337 35.8678 99.9103 36.0811 99.4841 36.0811C99.1282 36.0811 98.7019 36.01 98.2752 35.8678C98.1332 35.7967 98.0622 35.7967 97.9198 35.7967C97.8489 35.7967 97.7779 35.8678 97.7064 35.9389H97.5645V33.9483H97.7064C97.8489 34.517 98.0622 34.9436 98.4176 35.2279C98.702 35.5833 99.0572 35.7255 99.4841 35.7255C99.7684 35.7255 99.9818 35.5833 100.124 35.4411C100.337 35.299 100.408 35.086 100.408 34.8724C100.408 34.588 100.337 34.3037 100.124 34.1616C99.9103 33.9483 99.555 33.7349 98.9153 33.4506C98.3466 33.0952 97.9912 32.8819 97.7779 32.5977C97.6355 32.3842 97.4935 32.0999 97.4935 31.7443C97.4935 31.3178 97.6354 30.8912 97.9912 30.6071C98.2752 30.3227 98.7019 30.1094 99.1996 30.1094C99.4126 30.1094 99.6974 30.1805 99.9818 30.2516C100.195 30.3227 100.337 30.3935 100.408 30.3935C100.48 30.3935 100.55 30.3227 100.55 30.3227C100.621 30.3227 100.621 30.2516 100.693 30.1094H100.906Z" fill="white"/>
<path fill-rule="evenodd" clip-rule="evenodd" d="M103.749 28.4746V30.323H105.1V30.7495H103.749V34.3751C103.749 34.7306 103.821 34.9439 103.892 35.0863C104.034 35.2283 104.176 35.2993 104.319 35.2993C104.461 35.2993 104.603 35.2283 104.745 35.1572C104.816 35.0863 104.958 34.9439 105.029 34.8016H105.242C105.1 35.1572 104.887 35.4414 104.674 35.6549C104.39 35.868 104.105 36.0103 103.821 36.0103C103.679 36.0103 103.465 35.9392 103.252 35.797C103.11 35.7259 102.967 35.5837 102.896 35.3704C102.825 35.1572 102.754 34.8728 102.754 34.5173V30.7495H101.901V30.5364C102.114 30.4653 102.328 30.2519 102.541 30.1097C102.825 29.8961 103.039 29.6122 103.181 29.3277C103.252 29.1855 103.394 28.9012 103.607 28.4746H103.749Z" fill="white"/>
<path fill-rule="evenodd" clip-rule="evenodd" d="M107.233 30.1094V31.3889C107.73 30.536 108.228 30.1094 108.655 30.1094C108.939 30.1094 109.081 30.1805 109.224 30.3227C109.366 30.4648 109.437 30.6071 109.437 30.8201C109.437 30.9623 109.437 31.1047 109.295 31.2467C109.224 31.3178 109.081 31.3888 108.939 31.3888C108.797 31.3888 108.655 31.3178 108.442 31.1758C108.299 31.0337 108.157 30.9624 108.086 30.9624C107.944 30.9624 107.873 31.0337 107.802 31.1047C107.66 31.2467 107.446 31.5313 107.233 31.8866V34.588C107.233 34.8725 107.304 35.1569 107.375 35.299C107.446 35.37 107.517 35.5122 107.66 35.5833C107.802 35.6546 107.944 35.6546 108.228 35.6546V35.8677H105.385V35.6546C105.669 35.6546 105.882 35.6546 106.024 35.5123C106.096 35.4412 106.166 35.3701 106.238 35.2279C106.238 35.1569 106.238 34.9435 106.238 34.6593V32.4553C106.238 31.8155 106.238 31.4603 106.238 31.3179C106.166 31.1758 106.096 31.1047 106.024 31.0337C105.953 30.9624 105.882 30.9624 105.811 30.9624C105.669 30.9624 105.527 30.9624 105.385 31.0337L105.313 30.8202L107.02 30.1094H107.233V30.1094Z" fill="white"/>
<path fill-rule="evenodd" clip-rule="evenodd" d="M114.698 30.3232V33.6646C114.698 34.3043 114.698 34.7308 114.698 34.873C114.769 35.0152 114.769 35.0865 114.84 35.1574C114.911 35.2285 114.982 35.2285 115.124 35.2285C115.195 35.2285 115.338 35.2285 115.551 35.1574L115.622 35.3706L113.916 36.0816H113.631V34.873C113.205 35.3706 112.778 35.7261 112.565 35.8683C112.281 36.0105 112.067 36.0816 111.783 36.0816C111.427 36.0816 111.214 35.9394 110.93 35.7972C110.717 35.5839 110.575 35.3705 110.503 35.0865C110.361 34.8019 110.361 34.3753 110.361 33.8777V31.3894C110.361 31.1052 110.29 30.9629 110.219 30.8207C110.219 30.7497 110.077 30.6788 110.005 30.6077C109.864 30.5366 109.65 30.5366 109.366 30.5366V30.3233H111.356V34.0198C111.356 34.5886 111.427 34.8731 111.641 35.0866C111.783 35.2285 111.996 35.2996 112.281 35.2996C112.423 35.2996 112.636 35.2285 112.849 35.1574C113.062 35.0153 113.347 34.8019 113.631 34.5175V31.3185C113.631 31.0343 113.631 30.8208 113.489 30.6788C113.347 30.6077 113.134 30.5366 112.778 30.5366V30.3234H114.698L114.698 30.3232Z" fill="white"/>
<path fill-rule="evenodd" clip-rule="evenodd" d="M120.741 33.735C120.598 34.517 120.314 35.0861 119.887 35.4412C119.461 35.8678 118.963 36.0811 118.394 36.0811C117.754 36.0811 117.256 35.7966 116.759 35.2279C116.262 34.7302 116.048 34.0192 116.048 33.0952C116.048 32.2422 116.333 31.5313 116.83 30.9624C117.328 30.3936 117.968 30.1094 118.679 30.1094C119.247 30.1094 119.745 30.2516 120.029 30.6071C120.385 30.8913 120.598 31.1758 120.598 31.4603C120.598 31.6023 120.527 31.7444 120.456 31.8866C120.314 31.9578 120.172 32.029 120.029 32.029C119.816 32.029 119.603 31.8866 119.461 31.7444C119.39 31.6735 119.39 31.5314 119.318 31.2468C119.318 31.0338 119.247 30.8202 119.105 30.7492C118.963 30.6071 118.75 30.5361 118.537 30.5361C118.11 30.5361 117.755 30.6782 117.541 30.9624C117.186 31.3889 117.043 31.8866 117.043 32.5978C117.043 33.2374 117.186 33.8061 117.541 34.3038C117.826 34.8725 118.323 35.086 118.821 35.086C119.247 35.086 119.603 34.9436 119.887 34.7302C120.172 34.517 120.385 34.1616 120.598 33.664L120.741 33.7349V33.735Z" fill="white"/>
<path fill-rule="evenodd" clip-rule="evenodd" d="M123.157 28.4746V30.323H124.508V30.7495H123.157V34.3751C123.157 34.7306 123.229 34.9439 123.3 35.0863C123.442 35.2283 123.584 35.2993 123.726 35.2993C123.868 35.2993 124.01 35.2283 124.082 35.1572C124.224 35.0863 124.366 34.9439 124.437 34.8016H124.651C124.508 35.1572 124.295 35.4414 124.01 35.6549C123.797 35.868 123.513 36.0103 123.229 36.0103C123.015 36.0103 122.873 35.9392 122.66 35.797C122.518 35.7259 122.375 35.5837 122.304 35.3704C122.233 35.1572 122.162 34.8728 122.162 34.5173V30.7495H121.309V30.5364C121.523 30.4653 121.735 30.2519 121.949 30.1097C122.233 29.8961 122.375 29.6122 122.589 29.3277C122.66 29.1855 122.802 28.9012 123.015 28.4746H123.157H123.157Z" fill="white"/>
<path fill-rule="evenodd" clip-rule="evenodd" d="M126.428 27.1948C126.641 27.1948 126.783 27.2659 126.854 27.4081C126.996 27.5503 127.067 27.6925 127.067 27.8347C127.067 27.9768 126.996 28.119 126.854 28.2612C126.783 28.4034 126.641 28.4745 126.428 28.4745C126.285 28.4745 126.143 28.4034 126.001 28.2612C125.859 28.119 125.788 27.9768 125.788 27.8347C125.788 27.6925 125.859 27.5503 126.001 27.4081C126.143 27.2659 126.285 27.1948 126.428 27.1948ZM126.925 30.1096V34.5883C126.925 34.9438 126.996 35.2282 126.996 35.2993C127.067 35.4414 127.138 35.5125 127.21 35.5836C127.352 35.6548 127.494 35.6548 127.779 35.6548V35.868H125.077V35.6548C125.361 35.6548 125.504 35.6548 125.646 35.5836C125.717 35.5125 125.788 35.4414 125.859 35.2993C125.93 35.2282 125.93 34.9438 125.93 34.5883V32.4555C125.93 31.8868 125.93 31.4606 125.859 31.3182C125.859 31.1761 125.788 31.105 125.717 31.034C125.646 30.9626 125.574 30.9626 125.504 30.9626C125.361 30.9626 125.219 30.9626 125.077 31.034L125.006 30.8204L126.641 30.1097H126.925L126.925 30.1096Z" fill="white"/>
<path fill-rule="evenodd" clip-rule="evenodd" d="M131.191 30.1094C132.044 30.1094 132.755 30.4649 133.252 31.1047C133.679 31.6735 133.892 32.3133 133.892 33.0239C133.892 33.5215 133.75 34.0192 133.537 34.517C133.324 35.0147 132.968 35.4412 132.542 35.6546C132.115 35.9389 131.689 36.0811 131.12 36.0811C130.338 36.0811 129.627 35.7255 129.129 35.0147C128.703 34.517 128.489 33.8772 128.489 33.1663C128.489 32.6688 128.632 32.0999 128.916 31.6023C129.129 31.1047 129.485 30.7492 129.911 30.536C130.338 30.2516 130.764 30.1094 131.191 30.1094H131.191ZM131.048 30.536C130.836 30.536 130.622 30.6071 130.409 30.7491C130.124 30.8201 129.982 31.1047 129.84 31.3888C129.698 31.7443 129.627 32.0998 129.627 32.6687C129.627 33.4505 129.84 34.1615 130.124 34.7302C130.48 35.299 130.907 35.6545 131.404 35.6545C131.831 35.6545 132.115 35.4411 132.399 35.1568C132.613 34.8013 132.755 34.2326 132.755 33.4505C132.755 32.4552 132.542 31.6734 132.115 31.1046C131.831 30.7491 131.475 30.5359 131.049 30.5359L131.048 30.536Z" fill="white"/>
<path fill-rule="evenodd" clip-rule="evenodd" d="M136.38 31.3178C137.02 30.5359 137.66 30.1094 138.229 30.1094C138.513 30.1094 138.798 30.1805 139.011 30.3936C139.224 30.536 139.437 30.7492 139.508 31.1047C139.651 31.3889 139.651 31.7443 139.651 32.2422V34.588C139.651 34.9436 139.722 35.2279 139.722 35.3701C139.793 35.4412 139.864 35.5123 139.935 35.5833C140.077 35.6546 140.219 35.6546 140.504 35.6546V35.8677H137.731V35.6546H137.873C138.158 35.6546 138.3 35.6546 138.442 35.5123C138.513 35.4412 138.584 35.3701 138.655 35.2279C138.655 35.1569 138.655 34.9435 138.655 34.588V32.3133C138.655 31.8154 138.584 31.4603 138.442 31.2467C138.3 31.0337 138.087 30.8912 137.802 30.8912C137.305 30.8912 136.807 31.1758 136.38 31.6734V34.588C136.38 35.0146 136.38 35.2279 136.451 35.299C136.451 35.441 136.522 35.5121 136.665 35.5833C136.736 35.6545 136.949 35.6545 137.233 35.6545V35.8677H134.532V35.6545H134.603C134.888 35.6545 135.101 35.5833 135.172 35.4411C135.314 35.299 135.314 35.0146 135.314 34.588V32.5264C135.314 31.8865 135.314 31.4603 135.314 31.3178C135.243 31.1758 135.243 31.1047 135.172 31.0336C135.101 30.9623 135.03 30.9623 134.888 30.9623C134.816 30.9623 134.674 30.9623 134.532 31.0336L134.39 30.8201L136.096 30.1094H136.38V31.3178H136.38Z" fill="white"/>
<path fill-rule="evenodd" clip-rule="evenodd" d="M147.258 35.086C146.689 35.5123 146.333 35.7966 146.191 35.8678C145.978 35.9389 145.693 36.01 145.48 36.01C145.054 36.01 144.769 35.8678 144.485 35.5833C144.272 35.3701 144.13 35.0147 144.13 34.588C144.13 34.3037 144.201 34.0192 144.343 33.8772C144.485 33.5929 144.769 33.3085 145.196 33.0952C145.622 32.8107 146.262 32.5265 147.258 32.1709V31.9578C147.258 31.3889 147.187 31.0337 146.973 30.8202C146.831 30.6072 146.547 30.536 146.191 30.536C145.978 30.536 145.764 30.6071 145.622 30.7491C145.48 30.8201 145.338 31.0337 145.338 31.1758L145.409 31.5313C145.409 31.7443 145.338 31.8866 145.267 31.9578C145.125 32.0999 145.054 32.0999 144.84 32.0999C144.698 32.0999 144.556 32.0999 144.485 31.9578C144.414 31.8866 144.342 31.7444 144.342 31.5313C144.342 31.1758 144.556 30.8913 144.912 30.6071C145.267 30.2516 145.764 30.1094 146.404 30.1094C146.902 30.1094 147.329 30.2516 147.613 30.3936C147.827 30.536 148.04 30.6782 148.111 30.9624C148.182 31.1758 148.253 31.5313 148.253 32.029V33.9483C148.253 34.4459 148.253 34.8014 148.253 34.9436C148.324 35.0147 148.324 35.1569 148.395 35.1569C148.395 35.2279 148.466 35.2279 148.537 35.2279C148.608 35.2279 148.679 35.2279 148.679 35.1569C148.822 35.1569 148.964 35.0147 149.177 34.7302V35.086C148.75 35.6546 148.324 36.01 147.897 36.01C147.684 36.01 147.542 35.9389 147.4 35.7967C147.328 35.6546 147.257 35.4412 147.257 35.0861L147.258 35.086ZM147.258 34.6593V32.5265C146.618 32.8108 146.262 32.953 146.049 33.0952C145.764 33.2373 145.48 33.4506 145.338 33.664C145.196 33.806 145.196 34.0192 145.196 34.3037C145.196 34.588 145.267 34.8013 145.409 35.0146C145.622 35.2279 145.836 35.299 146.049 35.299C146.334 35.299 146.76 35.086 147.258 34.6593H147.258Z" fill="white"/>
<path fill-rule="evenodd" clip-rule="evenodd" d="M151.239 31.3178C151.879 30.5359 152.518 30.1094 153.087 30.1094C153.443 30.1094 153.656 30.1805 153.94 30.3936C154.154 30.536 154.296 30.7492 154.438 31.1047C154.509 31.3889 154.58 31.7443 154.58 32.2422V34.588C154.58 34.9436 154.58 35.2279 154.651 35.3701C154.722 35.4412 154.793 35.5123 154.864 35.5833C154.935 35.6546 155.149 35.6546 155.433 35.6546V35.8677H152.66V35.6546H152.803C153.016 35.6546 153.23 35.6546 153.301 35.5123C153.442 35.4412 153.513 35.3701 153.513 35.2279C153.584 35.1569 153.584 34.9435 153.584 34.588V32.3133C153.584 31.8154 153.513 31.4603 153.371 31.2467C153.23 31.0337 153.016 30.8912 152.66 30.8912C152.234 30.8912 151.736 31.1758 151.239 31.6734V34.588C151.239 35.0146 151.239 35.2279 151.31 35.299C151.381 35.441 151.452 35.5121 151.523 35.5833C151.665 35.6545 151.879 35.6545 152.163 35.6545V35.8677H149.39V35.6545H149.532C149.817 35.6545 150.03 35.5833 150.101 35.4411C150.172 35.299 150.243 35.0146 150.243 34.588V32.5264C150.243 31.8865 150.243 31.4603 150.172 31.3178C150.172 31.1758 150.101 31.1047 150.03 31.0336C150.03 30.9623 149.887 30.9623 149.817 30.9623C149.675 30.9623 149.532 30.9623 149.39 31.0336L149.319 30.8201L150.954 30.1094H151.239V31.3178H151.239Z" fill="white"/>
<path fill-rule="evenodd" clip-rule="evenodd" d="M159.77 35.2282C159.557 35.5125 159.272 35.7258 158.988 35.868C158.774 36.0102 158.49 36.0813 158.135 36.0813C157.565 36.0813 156.997 35.7968 156.57 35.2992C156.144 34.8015 155.86 34.0907 155.86 33.3086C155.86 32.5266 156.144 31.8156 156.641 31.1049C157.139 30.4651 157.779 30.1096 158.561 30.1096C159.059 30.1096 159.486 30.3229 159.77 30.6073V29.5409C159.77 28.9011 159.77 28.5456 159.77 28.4034C159.699 28.2612 159.699 28.119 159.627 28.119C159.557 28.048 159.486 28.048 159.343 28.048C159.272 28.048 159.13 28.048 158.916 28.119L158.845 27.9057L160.552 27.1948H160.836V33.6642C160.836 34.304 160.836 34.7305 160.836 34.8727C160.907 35.0149 160.907 35.0862 160.978 35.1571C161.049 35.2282 161.121 35.2282 161.263 35.2282C161.334 35.2282 161.476 35.2282 161.689 35.1571L161.76 35.3703L160.054 36.0813H159.77V35.2281V35.2282ZM159.77 34.8016V31.958C159.77 31.6737 159.699 31.4605 159.557 31.176C159.486 30.9626 159.272 30.8203 159.13 30.6784C158.916 30.5362 158.703 30.5362 158.49 30.5362C158.135 30.5362 157.85 30.6784 157.566 30.9626C157.21 31.3891 156.997 32.0292 156.997 32.811C156.997 33.6642 157.21 34.304 157.566 34.7305C157.921 35.1571 158.277 35.3703 158.703 35.3703C159.13 35.3703 159.486 35.2282 159.77 34.8016Z" fill="white"/>
<path fill-rule="evenodd" clip-rule="evenodd" d="M165.03 35.8682V35.655H165.386C165.67 35.655 165.954 35.5127 166.097 35.2995C166.168 35.1573 166.239 34.8729 166.239 34.4463V29.1145C166.239 28.5458 166.168 28.2614 166.097 28.1192C165.883 27.9059 165.67 27.8349 165.386 27.8349H165.03V27.6216H168.443C169.652 27.6216 170.576 27.7636 171.215 28.0482C171.856 28.3325 172.353 28.7589 172.78 29.47C173.206 30.1098 173.348 30.8206 173.348 31.7448C173.348 32.8823 172.993 33.8065 172.353 34.5885C171.571 35.4416 170.362 35.8682 168.727 35.8682H165.03H165.03ZM167.377 35.2995C167.945 35.3705 168.372 35.4416 168.727 35.4416C169.652 35.4416 170.434 35.1573 171.073 34.4463C171.642 33.8065 171.998 32.8823 171.998 31.7448C171.998 30.6076 171.642 29.7542 171.073 29.0436C170.434 28.4037 169.652 28.1192 168.656 28.1192C168.301 28.1192 167.874 28.1192 167.377 28.2614V35.2995Z" fill="white"/>
<path fill-rule="evenodd" clip-rule="evenodd" d="M175.197 32.3842C175.197 33.2375 175.339 33.8772 175.765 34.3748C176.192 34.8015 176.69 35.0861 177.187 35.0861C177.543 35.0861 177.898 34.9436 178.182 34.7303C178.467 34.5881 178.68 34.2327 178.822 33.735L179.036 33.8772C178.965 34.3748 178.68 34.9436 178.253 35.3701C177.898 35.7967 177.329 36.0811 176.761 36.0811C176.05 36.0811 175.481 35.7966 175.054 35.299C174.557 34.7302 174.272 34.0192 174.272 33.1662C174.343 32.2422 174.557 31.4603 175.054 30.9624C175.552 30.3936 176.121 30.1094 176.903 30.1094C177.543 30.1094 178.04 30.3227 178.396 30.7491C178.822 31.1758 179.036 31.7443 179.036 32.3841H175.197L175.197 32.3842ZM175.197 32.0291H177.756C177.756 31.6735 177.685 31.4604 177.614 31.318C177.543 31.0338 177.4 30.8913 177.187 30.7493C176.974 30.6072 176.761 30.5361 176.547 30.5361C176.192 30.5361 175.908 30.6783 175.623 30.9625C175.339 31.2469 175.197 31.6024 175.197 32.0291V32.0291Z" fill="white"/>
<path fill-rule="evenodd" clip-rule="evenodd" d="M179.462 30.3232H182.092V30.5365H181.951C181.808 30.5365 181.666 30.5365 181.595 30.6787C181.524 30.7497 181.453 30.8206 181.453 30.9629C181.453 31.1052 181.524 31.2473 181.595 31.4609L182.874 34.5175L184.154 31.3184C184.296 31.1053 184.296 30.9629 184.296 30.8207C184.296 30.7497 184.296 30.7497 184.296 30.6788C184.225 30.6077 184.154 30.6077 184.083 30.5366C184.012 30.5366 183.87 30.5366 183.657 30.5366V30.3233H185.505V30.5366C185.291 30.5366 185.149 30.6077 185.079 30.6788C184.936 30.7497 184.794 30.963 184.652 31.2473L182.732 36.0816H182.448L180.457 31.3184C180.386 31.1053 180.315 30.9629 180.173 30.8918C180.102 30.7497 180.031 30.6788 179.889 30.6076C179.818 30.6076 179.675 30.5365 179.462 30.5365V30.3232H179.462Z" fill="white"/>
<path fill-rule="evenodd" clip-rule="evenodd" d="M186.927 32.3842C186.927 33.2375 187.14 33.8772 187.566 34.3748C187.993 34.8015 188.42 35.0861 188.989 35.0861C189.344 35.0861 189.699 34.9436 189.913 34.7303C190.197 34.5881 190.41 34.2327 190.623 33.735L190.837 33.8772C190.695 34.3748 190.481 34.9436 190.055 35.3701C189.628 35.7967 189.131 36.0811 188.491 36.0811C187.851 36.0811 187.282 35.7966 186.785 35.299C186.358 34.7302 186.074 34.0192 186.074 33.1662C186.074 32.2422 186.358 31.4603 186.856 30.9624C187.282 30.3936 187.922 30.1094 188.633 30.1094C189.273 30.1094 189.771 30.3227 190.197 30.7491C190.623 31.1758 190.837 31.7443 190.837 32.3841H186.927L186.927 32.3842ZM186.927 32.0291H189.557C189.486 31.6735 189.486 31.4604 189.415 31.318C189.273 31.0338 189.131 30.8913 188.917 30.7493C188.775 30.6072 188.562 30.5361 188.349 30.5361C187.993 30.5361 187.708 30.6783 187.424 30.9625C187.14 31.2469 186.998 31.6024 186.927 32.0291V32.0291Z" fill="white"/>
<path fill-rule="evenodd" clip-rule="evenodd" d="M193.467 27.1948V34.5883C193.467 34.9438 193.467 35.2282 193.538 35.2993C193.609 35.4414 193.68 35.5125 193.751 35.5836C193.894 35.6548 194.107 35.6548 194.392 35.6548V35.868H191.619V35.6548C191.903 35.6548 192.046 35.6548 192.188 35.5836C192.259 35.5125 192.33 35.4414 192.401 35.2993C192.401 35.2282 192.472 34.9438 192.472 34.5883V29.541C192.472 28.9012 192.472 28.5457 192.401 28.4035C192.401 28.2613 192.33 28.119 192.259 28.119C192.188 28.0481 192.116 28.0481 192.046 28.0481C191.903 28.0481 191.832 28.0481 191.619 28.119L191.548 27.9058L193.183 27.1949H193.467V27.1948Z" fill="white"/>
<path fill-rule="evenodd" clip-rule="evenodd" d="M197.733 30.1094C198.586 30.1094 199.297 30.4649 199.794 31.1047C200.221 31.6735 200.434 32.3133 200.434 33.0239C200.434 33.5215 200.292 34.0192 200.079 34.517C199.865 35.0147 199.51 35.4412 199.084 35.6546C198.657 35.9389 198.231 36.0811 197.661 36.0811C196.808 36.0811 196.169 35.7255 195.671 35.0147C195.245 34.517 195.031 33.8772 195.031 33.1663C195.031 32.6688 195.173 32.0999 195.458 31.6023C195.671 31.1047 196.027 30.7492 196.453 30.536C196.88 30.2516 197.306 30.1094 197.733 30.1094H197.733ZM197.59 30.536C197.377 30.536 197.164 30.6071 196.88 30.7491C196.666 30.8201 196.524 31.1047 196.382 31.3888C196.24 31.7443 196.169 32.0998 196.169 32.6687C196.169 33.4505 196.311 34.1615 196.666 34.7302C197.022 35.299 197.449 35.6545 197.946 35.6545C198.373 35.6545 198.657 35.4411 198.941 35.1568C199.155 34.8013 199.297 34.2326 199.297 33.4505C199.297 32.4552 199.084 31.6734 198.657 31.1046C198.373 30.7491 198.017 30.5359 197.591 30.5359L197.59 30.536Z" fill="white"/>
<path fill-rule="evenodd" clip-rule="evenodd" d="M200.861 30.8913L202.567 30.1805H202.78V31.4603C203.064 30.9624 203.349 30.6071 203.704 30.4649C203.989 30.2516 204.273 30.1094 204.558 30.1094C205.126 30.1094 205.624 30.3227 205.979 30.8201C206.477 31.3178 206.69 32.0289 206.69 32.8818C206.69 33.8771 206.406 34.6592 205.837 35.299C205.411 35.7966 204.842 36.0811 204.131 36.0811C203.847 36.0811 203.562 36.01 203.349 35.9389C203.207 35.8678 202.993 35.7256 202.78 35.5833V37.2896C202.78 37.645 202.851 37.8583 202.851 38.0005C202.922 38.0716 202.993 38.1427 203.136 38.2138C203.207 38.2849 203.42 38.356 203.776 38.356V38.5693H200.861V38.356H201.003C201.216 38.356 201.359 38.2849 201.571 38.2138C201.643 38.1427 201.714 38.0716 201.714 38.0005C201.785 37.8583 201.785 37.645 201.785 37.2185V31.9577C201.785 31.6022 201.785 31.3888 201.714 31.2467C201.714 31.1758 201.643 31.1047 201.571 31.0337C201.5 30.9624 201.429 30.9624 201.287 30.9624C201.216 30.9624 201.074 30.9624 200.932 31.0337L200.861 30.8913H200.861ZM202.78 31.8155V33.8772C202.78 34.3748 202.851 34.6593 202.851 34.8014C202.922 35.0147 203.064 35.228 203.278 35.4412C203.491 35.5833 203.776 35.6546 204.131 35.6546C204.558 35.6546 204.842 35.5123 205.126 35.2279C205.411 34.8013 205.624 34.2326 205.624 33.4506C205.624 32.5977 205.411 31.9578 205.055 31.5313C204.771 31.1758 204.487 31.0337 204.131 31.0337C203.918 31.0337 203.704 31.1047 203.562 31.1758C203.42 31.2467 203.136 31.4603 202.78 31.8154V31.8155Z" fill="white"/>
<path fill-rule="evenodd" clip-rule="evenodd" d="M209.179 31.3179C209.534 30.8913 209.818 30.6782 209.889 30.6071C210.032 30.465 210.245 30.3227 210.458 30.2516C210.671 30.1805 210.884 30.1094 211.098 30.1094C211.454 30.1094 211.738 30.2516 212.022 30.465C212.235 30.6782 212.449 30.9624 212.52 31.318C212.946 30.8202 213.302 30.5361 213.586 30.3936C213.87 30.1806 214.155 30.1094 214.439 30.1094C214.724 30.1094 215.008 30.1805 215.221 30.3936C215.435 30.5361 215.648 30.7493 215.79 31.1047C215.861 31.3179 215.932 31.7444 215.932 32.2422V34.5881C215.932 34.9436 215.932 35.228 216.003 35.3701C216.074 35.4412 216.145 35.5123 216.216 35.5834C216.359 35.6546 216.501 35.6546 216.786 35.6546V35.8678H214.013V35.6546H214.155C214.368 35.6546 214.581 35.5834 214.653 35.5123C214.795 35.4412 214.866 35.3701 214.866 35.228C214.866 35.1569 214.937 34.9436 214.937 34.5881V32.2422C214.937 31.7444 214.866 31.4603 214.724 31.2468C214.581 31.0338 214.297 30.8913 214.013 30.8913C213.8 30.8913 213.515 30.8913 213.302 31.0337C213.088 31.1047 212.875 31.3179 212.52 31.6023V34.588C212.52 35.0147 212.591 35.2279 212.591 35.3701C212.662 35.4412 212.733 35.5123 212.875 35.5833C212.946 35.6546 213.16 35.6546 213.444 35.6546V35.8677H210.601V35.6546C210.956 35.6546 211.169 35.6546 211.24 35.5833C211.382 35.5123 211.454 35.3701 211.525 35.2279C211.525 35.1568 211.525 34.9435 211.525 34.588V32.2422C211.525 31.7443 211.454 31.4603 211.311 31.2467C211.169 30.9623 210.885 30.8201 210.601 30.8201C210.387 30.8201 210.174 30.8912 209.961 31.0336C209.605 31.1757 209.321 31.3888 209.179 31.6022V34.588C209.179 35.0146 209.179 35.2279 209.25 35.37C209.25 35.4411 209.392 35.5122 209.463 35.5833C209.534 35.6545 209.748 35.6545 210.032 35.6545V35.8677H207.33V35.6545C207.544 35.6545 207.757 35.6545 207.828 35.5833C207.97 35.5122 208.041 35.4411 208.041 35.299C208.112 35.2279 208.183 34.9434 208.183 34.588V32.4552C208.183 31.8865 208.112 31.4603 208.112 31.3178C208.041 31.1758 208.041 31.1047 207.97 31.0336C207.899 30.9623 207.828 30.9623 207.686 30.9623C207.615 30.9623 207.472 30.9623 207.33 31.0336L207.188 30.8201L208.894 30.1094H209.179V31.3178L209.179 31.3179Z" fill="white"/>
<path fill-rule="evenodd" clip-rule="evenodd" d="M218.136 32.3842C218.136 33.2375 218.349 33.8772 218.776 34.3748C219.131 34.8015 219.629 35.0861 220.198 35.0861C220.553 35.0861 220.838 34.9436 221.122 34.7303C221.406 34.5881 221.62 34.2327 221.833 33.735L221.975 33.8772C221.904 34.3748 221.691 34.9436 221.264 35.3701C220.838 35.7967 220.339 36.0811 219.7 36.0811C219.06 36.0811 218.492 35.7966 217.994 35.299C217.496 34.7302 217.283 34.0192 217.283 33.1662C217.283 32.2422 217.496 31.4603 217.994 30.9624C218.492 30.3936 219.131 30.1094 219.842 30.1094C220.482 30.1094 220.98 30.3227 221.406 30.7491C221.833 31.1758 221.975 31.7443 221.975 32.3841H218.136L218.136 32.3842ZM218.136 32.0291H220.696C220.696 31.6735 220.696 31.4604 220.624 31.318C220.482 31.0338 220.339 30.8913 220.126 30.7493C219.913 30.6072 219.7 30.5361 219.487 30.5361C219.202 30.5361 218.847 30.6783 218.634 30.9625C218.349 31.2469 218.207 31.6024 218.136 32.0291V32.0291Z" fill="white"/>
<path fill-rule="evenodd" clip-rule="evenodd" d="M224.392 31.3178C225.032 30.5359 225.672 30.1094 226.241 30.1094C226.525 30.1094 226.809 30.1805 227.023 30.3936C227.236 30.536 227.449 30.7492 227.52 31.1047C227.662 31.3889 227.662 31.7443 227.662 32.2422V34.588C227.662 34.9436 227.734 35.2279 227.805 35.3701C227.805 35.4412 227.876 35.5123 228.018 35.5833C228.089 35.6546 228.302 35.6546 228.515 35.6546V35.8677H225.743V35.6546H225.885C226.17 35.6546 226.312 35.6546 226.454 35.5123C226.525 35.4412 226.596 35.3701 226.667 35.2279C226.667 35.1569 226.667 34.9435 226.667 34.588V32.3133C226.667 31.8154 226.596 31.4603 226.454 31.2467C226.383 31.0337 226.099 30.8912 225.814 30.8912C225.316 30.8912 224.819 31.1758 224.392 31.6734V34.588C224.392 35.0146 224.392 35.2279 224.463 35.299C224.463 35.441 224.606 35.5121 224.676 35.5833C224.748 35.6545 224.961 35.6545 225.246 35.6545V35.8677H222.544V35.6545H222.615C222.899 35.6545 223.113 35.5833 223.184 35.4411C223.326 35.299 223.397 35.0146 223.397 34.588V32.5264C223.397 31.8865 223.326 31.4603 223.326 31.3178C223.326 31.1758 223.255 31.1047 223.184 31.0336C223.113 30.9623 223.042 30.9623 222.899 30.9623C222.828 30.9623 222.686 30.9623 222.544 31.0336L222.401 30.8201L224.108 30.1094H224.392V31.3178H224.392Z" fill="white"/>
<path fill-rule="evenodd" clip-rule="evenodd" d="M230.577 28.4746V30.323H231.928V30.7495H230.577V34.3751C230.577 34.7306 230.648 34.9439 230.791 35.0863C230.862 35.2283 231.004 35.2993 231.146 35.2993C231.288 35.2993 231.43 35.2283 231.572 35.1572C231.643 35.0863 231.786 34.9439 231.857 34.8016H232.07C231.928 35.1572 231.715 35.4414 231.501 35.6549C231.217 35.868 230.933 36.0103 230.648 36.0103C230.506 36.0103 230.293 35.9392 230.151 35.797C229.937 35.7259 229.795 35.5837 229.724 35.3704C229.653 35.1572 229.582 34.8728 229.582 34.5173V30.7495H228.729V30.5364C228.942 30.4653 229.155 30.2519 229.368 30.1097C229.653 29.8961 229.866 29.6122 230.009 29.3277C230.15 29.1855 230.222 28.9012 230.435 28.4746H230.577H230.577Z" fill="white"/>
</svg>
