<?xml version="1.0" encoding="UTF-8"?>
<!DOCTYPE svg PUBLIC "-//W3C//DTD SVG 1.1//EN" "http://www.w3.org/Graphics/SVG/1.1/DTD/svg11.dtd">
<!-- Creator: CorelDRAW -->
<?xml-stylesheet href="new logo.css" type="text/css"?>
<svg xmlns="http://www.w3.org/2000/svg" xml:space="preserve" width="127px" height="40px" style="shape-rendering:geometricPrecision; text-rendering:geometricPrecision; image-rendering:optimizeQuality; fill-rule:evenodd; clip-rule:evenodd"
viewBox="0 0 127 39.9997"
 xmlns:xlink="http://www.w3.org/1999/xlink">
 <style>
.fil4 {fill:#34773A}
.fil1 {fill:#C5D17A}
.fil3 {fill:#EB1A3E}
.fil2 {fill:#F3705B}
.fil0 {fill:black;fill-rule:nonzero}
</style>
 <g id="Layer_x0020_1">
  <metadata id="CorelCorpID_0Corel-Layer"/>
  <g id="_402502640">
   <path id="_402707224" class="fil0" d="M10.1792 13.7214l-5.40312 0 0 6.71924 -3.77433 0 0 -20.0503 9.79738 0c1.48139,0 2.69943,0.205228 3.6496,0.611149 0.945921,0.405921 1.65543,1.06639 2.12372,1.98538 0.468567,0.91474 0.700441,2.11918 0.700441,3.61389 0,1.08879 -0.0711496,1.99446 -0.20948,2.71701 -0.138331,0.722834 -0.477354,1.3252 -1.02189,1.81162 -0.26759,0.240945 -0.553039,0.410456 -0.856629,0.513071 -0.298772,0.102614 -0.798519,0.240945 -1.49896,0.419244l0 0.10715c2.25298,0.12926 3.37748,1.42327 3.37748,3.88148l0 4.3903 -3.88601 0 0 -4.10031c-0.0357165,-0.972566 -0.30359,-1.65515 -0.798803,-2.03896 -0.499748,-0.388063 -1.23137,-0.579968 -2.1994,-0.579968zm-5.40312 -3.21222l5.40312 0c1.1554,0 1.97631,-0.276661 2.46727,-0.825448 0.495212,-0.548787 0.740409,-1.40542 0.740409,-2.57442 0,-0.838771 -0.0890078,-1.5035 -0.263055,-1.99417 -0.178583,-0.49096 -0.486425,-0.856629 -0.928063,-1.08425 -0.441638,-0.231874 -1.06186,-0.348094 -1.85159,-0.348094l-5.56809 0 0 6.82639zm30.7284 -10.0922l3.85483 0 0 13.358c0,1.34759 -0.10715,2.44488 -0.321449,3.29272 -0.218551,0.847559 -0.619937,1.53921 -1.20898,2.07468 -0.593291,0.535464 -1.44113,0.923527 -2.54749,1.16901 -1.10665,0.245197 -2.55657,0.370205 -4.35005,0.370205 -2.37798,-0.00453543 -4.15814,-0.227622 -5.33168,-0.66926 -1.17779,-0.441638 -1.96299,-1.14208 -2.35134,-2.10132 -0.388063,-0.959244 -0.584504,-2.3468 -0.584504,-4.16268l0 -13.3313 3.85483 0 0 13.5453c0,0.968314 0.102614,1.68661 0.30359,2.1549 0.200693,0.468567 0.619937,0.798803 1.25348,0.986173 0.633543,0.191905 1.61972,0.285449 2.96702,0.285449 1.35638,0 2.34227,-0.0935433 2.96249,-0.285449 0.62022,-0.18737 1.02614,-0.513071 1.21351,-0.972566 0.191905,-0.459779 0.285732,-1.18233 0.285732,-2.1685l0 -13.5453zm13.3101 3.15439l0 5.1976 4.8719 0c0.879023,0 1.54828,-0.0668976 2.01231,-0.200693 0.464031,-0.138331 0.803055,-0.401386 1.01735,-0.798519 0.214016,-0.392598 0.321165,-0.990425 0.321165,-1.78923 0,-0.923527 -0.205228,-1.55707 -0.62022,-1.90063 -0.414992,-0.339023 -1.1109,-0.508535 -2.08346,-0.508535l-5.51905 0zm0 8.05748l0 5.63074 4.8719 0c1.32973,0 2.29776,-0.209764 2.90012,-0.629291 0.606897,-0.419244 0.905669,-1.16447 0.905669,-2.23965 0,-0.713763 -0.102614,-1.26709 -0.307842,-1.66847 -0.209764,-0.401669 -0.535464,-0.682582 -0.977102,-0.847842 -0.446173,-0.164976 -1.05279,-0.24548 -1.82013,-0.24548l-5.57263 0zm-3.80126 8.81178l0 -20.0503 10.2796 0c1.21805,0 2.24419,0.174047 3.06935,0.526393 0.825448,0.352346 1.4502,0.901133 1.87852,1.6509 0.432567,0.74948 0.646866,1.69965 0.646866,2.85534 0,2.54296 -0.954708,4.07792 -2.85987,4.60431l0 0.133795c1.07065,0.169512 1.89184,0.642614 2.4582,1.42327 0.571181,0.780944 0.856629,1.81134 0.856629,3.09628 0,0.892346 -0.115937,1.69115 -0.347811,2.40038 -0.236409,0.709511 -0.589039,1.31613 -1.07093,1.81587 -0.477354,0.504283 -1.07518,0.883559 -1.78894,1.14661 -0.714047,0.263338 -1.55707,0.397134 -2.52085,0.397134l-10.6007 0zm33.9806 -3.83244l-8.68223 0 -1.25348 3.83244 -3.98891 0 6.66567 -20.0503 5.64831 0 6.79946 20.0503 -3.90812 0 -1.28069 -3.83244zm-0.892063 -2.85987l-3.47584 -10.4133 -3.42623 10.4133 6.90208 0zm19.65 -0.0269291l-5.40312 0 0 6.71924 -3.77433 0 0 -20.0503 9.79738 0c1.48139,0 2.69943,0.205228 3.6496,0.611149 0.945921,0.405921 1.65543,1.06639 2.12372,1.98538 0.468567,0.91474 0.700441,2.11918 0.700441,3.61389 0,1.08879 -0.0711496,1.99446 -0.20948,2.71701 -0.138331,0.722834 -0.477354,1.3252 -1.02189,1.81162 -0.26759,0.240945 -0.553039,0.410456 -0.856629,0.513071 -0.298772,0.102614 -0.798519,0.240945 -1.49896,0.419244l0 0.10715c2.25298,0.12926 3.37748,1.42327 3.37748,3.88148l0 4.3903 -3.88601 0 0 -4.10031c-0.0357165,-0.972566 -0.30359,-1.65515 -0.798803,-2.03896 -0.499748,-0.388063 -1.23137,-0.579968 -2.1994,-0.579968zm-5.40312 -3.21222l5.40312 0c1.1554,0 1.97631,-0.276661 2.46727,-0.825448 0.495212,-0.548787 0.740409,-1.40542 0.740409,-2.57442 0,-0.838771 -0.0890078,-1.5035 -0.263055,-1.99417 -0.178583,-0.49096 -0.486425,-0.856629 -0.928063,-1.08425 -0.441638,-0.231874 -1.06186,-0.348094 -1.85159,-0.348094l-5.56809 0 0 6.82639zm21.6312 -6.93779l0 5.1976 4.8719 0c0.879023,0 1.54828,-0.0668976 2.01231,-0.200693 0.464031,-0.138331 0.803055,-0.401386 1.01735,-0.798519 0.214016,-0.392598 0.321165,-0.990425 0.321165,-1.78923 0,-0.923527 -0.205228,-1.55707 -0.62022,-1.90063 -0.414992,-0.339023 -1.1109,-0.508535 -2.08346,-0.508535l-5.51905 0zm0 8.05748l0 5.63074 4.8719 0c1.32973,0 2.29776,-0.209764 2.90012,-0.629291 0.606897,-0.419244 0.905669,-1.16447 0.905669,-2.23965 0,-0.713763 -0.102614,-1.26709 -0.307842,-1.66847 -0.209764,-0.401669 -0.535464,-0.682582 -0.977102,-0.847842 -0.446173,-0.164976 -1.05279,-0.24548 -1.82013,-0.24548l-5.57263 0zm-3.80126 8.81178l0 -20.0503 10.2796 0c1.21805,0 2.24419,0.174047 3.06935,0.526393 0.825448,0.352346 1.4502,0.901133 1.87852,1.6509 0.432567,0.74948 0.646866,1.69965 0.646866,2.85534 0,2.54296 -0.954708,4.07792 -2.85987,4.60431l0 0.133795c1.07065,0.169512 1.89184,0.642614 2.4582,1.42327 0.571181,0.780944 0.856629,1.81134 0.856629,3.09628 0,0.892346 -0.115937,1.69115 -0.347811,2.40038 -0.236409,0.709511 -0.589039,1.31613 -1.07093,1.81587 -0.477354,0.504283 -1.07518,0.883559 -1.78894,1.14661 -0.714047,0.263338 -1.55707,0.397134 -2.52085,0.397134l-10.6007 0z"/>
   <polygon id="_402707392" class="fil1" points="0.491811,24.4871 126.408,24.4871 126.408,27.5686 0.491811,27.5686 "/>
   <polygon id="_331044536" class="fil2" points="0.491811,24.4871 58.4036,24.4871 58.4036,27.5686 0.491811,27.5686 "/>
   <polygon id="_328945264" class="fil3" points="0.491811,24.4871 29.4477,24.4871 29.4477,27.5686 0.491811,27.5686 "/>
   <polygon id="_328946752" class="fil4" points="90.9555,24.4871 126.408,24.4871 126.408,27.5686 90.9555,27.5686 "/>
   <path id="_328946536" class="fil0" d="M91.006 39.4957l0 -6.7113 2.31109 0c0.521858,0 0.920409,0.0328819 1.19537,0.0969448 0.384378,0.087307 0.71263,0.248315 0.984472,0.479622 0.353197,0.299905 0.618803,0.681165 0.793984,1.1469 0.176315,0.465732 0.263905,0.996944 0.263905,1.59534 0,0.509386 -0.0592441,0.961228 -0.179716,1.35496 -0.118772,0.393732 -0.270142,0.720283 -0.457795,0.978236 -0.185953,0.257669 -0.389197,0.460913 -0.610866,0.607748 -0.220535,0.148535 -0.487559,0.260787 -0.80022,0.337606 -0.314079,0.0765354 -0.673511,0.113953 -1.07802,0.113953l-2.4222 0zm0.887527 -0.792283l1.43291 0c0.442205,0 0.790866,-0.0405354 1.0423,-0.123307 0.251716,-0.0827716 0.451559,-0.198425 0.601512,-0.348661 0.211181,-0.209197 0.375023,-0.493795 0.492378,-0.848409 0.117071,-0.356315 0.176598,-0.786047 0.176598,-1.29373 0,-0.701574 -0.115653,-1.24072 -0.34526,-1.61745 -0.231307,-0.378142 -0.511086,-0.629574 -0.840755,-0.7577 -0.237543,-0.0921259 -0.621921,-0.13748 -1.1486,-0.13748l-1.41109 0 0 5.12674zm6.03496 0.792283l0 -6.7113 0.887527 0 0 6.7113 -0.887527 0zm5.59389 -2.6331l0 -0.785763 2.84258 -0.0048189 0 2.48938c-0.435968,0.348378 -0.88611,0.609165 -1.35014,0.785763 -0.464031,0.175181 -0.940818,0.262488 -1.42838,0.262488 -0.659338,0 -1.25943,-0.140598 -1.79688,-0.423212 -0.539149,-0.28148 -0.945354,-0.690803 -1.22031,-1.22372 -0.27496,-0.53433 -0.412724,-1.13131 -0.412724,-1.79064 0,-0.653102 0.137764,-1.26255 0.411023,-1.82835 0.271842,-0.567212 0.665858,-0.98759 1.17836,-1.26255 0.512504,-0.27326 1.10324,-0.411023 1.77194,-0.411023 0.484441,0 0.923527,0.0782362 1.31556,0.236126 0.392315,0.156189 0.700157,0.375023 0.92211,0.65622 0.22337,0.281197 0.392031,0.646866 0.509386,1.09842l-0.801637 0.220535c-0.10148,-0.342425 -0.226488,-0.611149 -0.375023,-0.806456 -0.149953,-0.195307 -0.363968,-0.351496 -0.64233,-0.46885 -0.276378,-0.117071 -0.585921,-0.176598 -0.923527,-0.176598 -0.406205,0 -0.7577,0.0626456 -1.05307,0.185953 -0.296787,0.12359 -0.53433,0.286016 -0.717165,0.487559 -0.181417,0.201543 -0.322016,0.422079 -0.423496,0.664157 -0.170362,0.414142 -0.256252,0.864283 -0.256252,1.35014 0,0.598393 0.103181,1.09842 0.30926,1.50151 0.206362,0.40337 0.506267,0.701858 0.9,0.897165 0.394016,0.195307 0.810992,0.293669 1.25348,0.293669 0.385795,0 0.760819,-0.0751181 1.12649,-0.22337 0.367086,-0.146835 0.643748,-0.304724 0.832818,-0.473669l0 -1.25008 -1.97206 0zm4.30356 2.6331l0 -6.7113 0.887527 0 0 6.7113 -0.887527 0zm4.16097 0l0 -5.91902 -2.21102 0 0 -0.792283 5.31921 0 0 0.792283 -2.22038 0 0 5.91902 -0.887811 0zm3.28138 0l2.57839 -6.7113 0.956409 0 2.74705 6.7113 -1.01253 0 -0.782929 -2.03301 -2.80658 0 -0.735874 2.03301 -0.943937 0zm1.93606 -2.75641l2.27679 0 -0.701574 -1.85783c-0.212598,-0.564094 -0.371905,-1.02841 -0.475086,-1.39238 -0.0858897,0.431149 -0.206079,0.857763 -0.362551,1.28296l-0.737574 1.96724zm5.0176 2.75641l0 -6.7113 0.889228 0 0 5.91902 3.30491 0 0 0.792283 -4.19414 0z"/>
  </g>
 </g>
</svg>
