<svg width="172" height="59" viewBox="0 0 172 59" fill="none" xmlns="http://www.w3.org/2000/svg">
<path fill-rule="evenodd" clip-rule="evenodd" d="M33.884 52.8323V26.2644L24.2647 20.7109V48.7286L9.62007 40.2737V13.7061L2.86237 17.657C1.22513 18.6022 0.221826 20.2233 0 21.9643L0.000207508 42.6717C0.0699302 44.6069 1.10457 46.4651 2.90594 47.5054L20.1025 57.4338C21.9039 58.474 24.0305 58.441 25.7416 57.5332L33.884 52.8323Z" fill="white"/>
<path fill-rule="evenodd" clip-rule="evenodd" d="M12.1328 5.38183L12.1322 31.9497L21.7521 37.503V9.48509L36.3967 17.9402V44.5077L43.6751 40.3058C45.0716 39.2434 45.9737 37.564 45.9737 35.6734L46.0166 15.5425C45.9471 13.6068 44.9122 11.7488 43.1109 10.709L25.9143 0.780131C24.1129 -0.259691 21.9863 -0.226698 20.2752 0.680735L12.1328 5.38183Z" fill="white"/>
<path fill-rule="evenodd" clip-rule="evenodd" d="M72.2356 23.584L79.5175 36.5873C79.7827 37.0565 79.6806 37.2907 79.2116 37.2907H76.4885C76.1007 37.2907 75.8255 37.2652 75.6624 37.2142C75.4993 37.1631 75.3256 36.9745 75.1424 36.6485L69.6661 26.6742L65.7803 31.4473V36.6485C65.7803 36.9336 65.7344 37.1121 65.6427 37.1839C65.5508 37.255 65.3621 37.2907 65.0764 37.2907H62.782C62.5579 37.2907 62.384 37.2497 62.262 37.1685C62.1398 37.0868 62.0781 36.9135 62.0781 36.6485V16.5169C62.0781 16.2517 62.1398 16.0784 62.262 15.9969C62.384 15.9151 62.5579 15.8745 62.782 15.8745H65.0764C65.3621 15.8745 65.5508 15.9099 65.6427 15.9815C65.7344 16.0529 65.7803 16.2314 65.7803 16.5169V25.8178L65.9029 25.879L68.9622 21.9937L73.6125 16.3028C73.7347 16.16 73.8876 16.0529 74.0715 15.9815C74.2553 15.9099 74.4996 15.8745 74.8056 15.8745H77.9266C78.1098 15.8745 78.2326 15.9255 78.2936 16.0274C78.3546 16.1293 78.3239 16.2517 78.2017 16.3945L72.2356 23.584ZM96.9565 36.5873C96.9565 36.8114 96.9156 36.9847 96.8343 37.1073C96.7525 37.2295 96.5792 37.2907 96.3136 37.2907H87.5941C86.5132 37.2907 85.6261 37.1376 84.9329 36.8317C84.2389 36.5257 83.6834 36.1177 83.2653 35.6079C82.8472 35.0982 82.5561 34.5172 82.393 33.8644C82.2301 33.2113 82.1487 32.5282 82.1487 31.8144V21.3508C82.1487 20.637 82.2454 19.9487 82.4392 19.2857C82.6332 18.6229 82.9493 18.0365 83.3875 17.5264C83.8262 17.0166 84.3921 16.6086 85.0858 16.3028C85.7791 15.9969 86.6151 15.8438 87.5941 15.8438H96.1304C96.3954 15.8438 96.5639 15.8998 96.6351 16.012C96.7062 16.1243 96.7423 16.3028 96.7423 16.5474V18.475C96.7423 18.7401 96.7062 18.9186 96.6351 19.0103C96.5639 19.102 96.3954 19.1481 96.1304 19.1481H87.9921C87.2171 19.1481 86.6716 19.3214 86.3553 19.6681C86.0393 20.0149 85.881 20.5148 85.881 21.167V24.3798H95.1205C95.3861 24.3798 95.5539 24.4308 95.6257 24.5329C95.6969 24.6348 95.7326 24.8288 95.7326 25.114V26.7969C95.7326 27.0419 95.6969 27.2198 95.6257 27.3324C95.5539 27.4445 95.3861 27.5003 95.1205 27.5003H85.881V31.9673C85.881 32.6201 86.0495 33.1146 86.3856 33.451C86.7224 33.7878 87.258 33.9561 87.9921 33.9561H96.3136C96.5996 33.9561 96.778 34.0071 96.8492 34.1086C96.9208 34.2107 96.9565 34.4045 96.9565 34.6903V36.5873ZM114.946 18.5667C114.946 18.7707 114.911 18.9134 114.839 18.995C114.768 19.0767 114.62 19.1174 114.395 19.1174H108.582V36.6485C108.582 36.9336 108.536 37.1121 108.445 37.1839C108.353 37.255 108.164 37.2907 107.879 37.2907H105.492C105.248 37.2907 105.069 37.2497 104.957 37.1685C104.844 37.0868 104.789 36.9135 104.789 36.6485V19.1174H99.0984C98.8737 19.1174 98.7307 19.0767 98.6697 18.995C98.6085 18.9134 98.5778 18.7707 98.5778 18.5667V16.4557C98.5778 16.2314 98.6085 16.0784 98.6697 15.9969C98.7307 15.9151 98.8737 15.8745 99.0984 15.8745H114.395C114.62 15.8745 114.768 15.9151 114.839 15.9969C114.911 16.0784 114.946 16.2314 114.946 16.4557V18.5667ZM132.14 18.5667C132.14 18.7707 132.105 18.9134 132.033 18.995C131.962 19.0767 131.814 19.1174 131.59 19.1174H125.777V36.6485C125.777 36.9336 125.731 37.1121 125.639 37.1839C125.547 37.255 125.359 37.2907 125.073 37.2907H122.687C122.442 37.2907 122.263 37.2497 122.151 37.1685C122.039 37.0868 121.983 36.9135 121.983 36.6485V19.1174H116.292C116.068 19.1174 115.925 19.0767 115.864 18.995C115.803 18.9134 115.772 18.7707 115.772 18.5667V16.4557C115.772 16.2314 115.803 16.0784 115.864 15.9969C115.925 15.9151 116.068 15.8745 116.292 15.8745H131.59C131.814 15.8745 131.962 15.9151 132.033 15.9969C132.105 16.0784 132.14 16.2314 132.14 16.4557V18.5667ZM149.641 36.5873C149.641 36.8114 149.6 36.9847 149.518 37.1073C149.437 37.2295 149.263 37.2907 148.998 37.2907H140.279C139.197 37.2907 138.31 37.1376 137.617 36.8317C136.923 36.5257 136.368 36.1177 135.95 35.6079C135.531 35.0982 135.24 34.5172 135.077 33.8644C134.914 33.2113 134.833 32.5282 134.833 31.8144V21.3508C134.833 20.637 134.93 19.9487 135.124 19.2857C135.317 18.6229 135.633 18.0365 136.072 17.5264C136.511 17.0166 137.076 16.6086 137.77 16.3028C138.463 15.9969 139.3 15.8438 140.279 15.8438H148.815C149.08 15.8438 149.248 15.8998 149.319 16.012C149.391 16.1243 149.427 16.3028 149.427 16.5474V18.475C149.427 18.7401 149.391 18.9186 149.319 19.0103C149.248 19.102 149.08 19.1481 148.815 19.1481H140.676C139.901 19.1481 139.356 19.3214 139.04 19.6681C138.723 20.0149 138.565 20.5148 138.565 21.167V24.3798H147.805C148.07 24.3798 148.238 24.4308 148.31 24.5329C148.381 24.6348 148.417 24.8288 148.417 25.114V26.7969C148.417 27.0419 148.381 27.2198 148.31 27.3324C148.238 27.4445 148.07 27.5003 147.805 27.5003H138.565V31.9673C138.565 32.6201 138.734 33.1146 139.07 33.451C139.407 33.7878 139.942 33.9561 140.676 33.9561H148.998C149.284 33.9561 149.462 34.0071 149.533 34.1086C149.605 34.2107 149.641 34.4045 149.641 34.6903V36.5873ZM156.8 21.4427V36.6485C156.8 36.9336 156.754 37.1121 156.662 37.1839C156.57 37.255 156.381 37.2907 156.096 37.2907H153.832C153.608 37.2907 153.434 37.2497 153.312 37.1685C153.19 37.0868 153.128 36.9135 153.128 36.6485V17.7101C153.128 17.0575 153.256 16.5831 153.511 16.2874C153.766 15.9917 154.23 15.8438 154.903 15.8438H155.973C156.504 15.8438 156.891 15.9407 157.136 16.1345C157.381 16.3283 157.666 16.68 157.993 17.1901L164.081 27.3171L166.682 31.7225H166.805V16.4862C166.805 16.2212 166.856 16.0477 166.957 15.9662C167.06 15.8846 167.243 15.8438 167.508 15.8438H169.772C170.037 15.8438 170.221 15.8846 170.323 15.9662C170.425 16.0477 170.476 16.2212 170.476 16.4862V35.4553C170.476 36.0465 170.353 36.5001 170.109 36.8168C169.864 37.1328 169.395 37.2907 168.701 37.2907H167.631C167.365 37.2907 167.141 37.2704 166.957 37.2295C166.774 37.1886 166.611 37.1175 166.468 37.0156C166.325 36.9135 166.187 36.7759 166.054 36.6022C165.922 36.429 165.774 36.2202 165.611 35.9753L159.492 25.8178L156.922 21.4427H156.8Z" fill="white"/>
<path fill-rule="evenodd" clip-rule="evenodd" d="M70.8354 48.9284C70.8354 49.0857 70.8003 49.2158 70.7302 49.3189C70.6594 49.4225 70.5314 49.4926 70.3454 49.5298C70.2668 49.5462 70.1834 49.559 70.0941 49.5669C70.0055 49.5748 69.9178 49.5823 69.8308 49.5887C69.7441 49.5951 69.6617 49.5989 69.5833 49.6009C69.5046 49.603 69.4338 49.604 69.3718 49.604C69.0249 49.604 68.7285 49.5723 68.4824 49.508C68.2365 49.4443 68.0367 49.3374 67.8838 49.1886C67.7312 49.04 67.6198 48.8419 67.5491 48.5937C67.4789 48.3457 67.4438 48.0376 67.4438 47.6699L67.4376 45.3198C67.4376 45.2661 67.4499 45.231 67.4748 45.2146C67.4997 45.1982 67.5347 45.1897 67.5804 45.1897H68.0639C68.1218 45.1897 68.16 45.1972 68.1786 45.2115C68.1973 45.2258 68.2062 45.2619 68.2062 45.3198V47.6821C68.2062 47.8931 68.2222 48.0768 68.2529 48.2341C68.2838 48.3907 68.3417 48.5209 68.4266 48.6246C68.5113 48.7282 68.6291 48.8051 68.78 48.8572C68.9308 48.9087 69.128 48.9348 69.3718 48.9348C69.4338 48.9348 69.5322 48.9315 69.6667 48.9253C69.8009 48.9193 69.9406 48.9012 70.0852 48.8726V45.3198C70.0852 45.2661 70.0964 45.231 70.1192 45.2146C70.1421 45.1982 70.1782 45.1897 70.2276 45.1897H70.7115C70.7694 45.1897 70.8044 45.1972 70.8167 45.2115C70.8289 45.2258 70.8354 45.2619 70.8354 45.3198V48.9284ZM65.1528 49.3901C65.1528 49.4358 65.1442 49.4708 65.1283 49.4957C65.1115 49.5202 65.0764 49.5329 65.0226 49.5329H63.2557C63.0364 49.5329 62.8569 49.5022 62.716 49.4399C62.5759 49.3779 62.4632 49.2955 62.3782 49.1919C62.2937 49.0884 62.2348 48.9709 62.2018 48.8386C62.1684 48.7064 62.152 48.5678 62.152 48.4231V46.3026C62.152 46.1582 62.1715 46.0183 62.2109 45.8841C62.2501 45.7496 62.3145 45.6311 62.4033 45.5276C62.4919 45.4244 62.6066 45.3416 62.7475 45.2794C62.8876 45.2177 63.0571 45.1864 63.2557 45.1864H64.9855C65.039 45.1864 65.0731 45.1982 65.088 45.2204C65.1023 45.2433 65.1092 45.2794 65.1092 45.3294V45.7199C65.1092 45.7734 65.1023 45.8096 65.088 45.8282C65.0731 45.8467 65.039 45.8562 64.9855 45.8562H63.336C63.1793 45.8562 63.0687 45.8913 63.0046 45.9615C62.9407 46.0322 62.9083 46.1331 62.9083 46.2655V46.9166H64.7809C64.8346 46.9166 64.8687 46.9268 64.883 46.9475C64.8977 46.9683 64.9048 47.0075 64.9048 47.0654V47.4065C64.9048 47.4559 64.8977 47.492 64.883 47.5149C64.8687 47.5377 64.8346 47.5489 64.7809 47.5489H62.9083V48.454C62.9083 48.5862 62.9424 48.6867 63.0109 48.7547C63.0789 48.8232 63.1872 48.8572 63.336 48.8572H65.0226C65.0805 48.8572 65.1166 48.8674 65.131 48.8879C65.1459 48.9087 65.1528 48.9481 65.1528 49.006V49.3901ZM76.8753 49.3997C76.8838 49.4283 76.8815 49.4575 76.8689 49.4862C76.8566 49.5154 76.8317 49.5298 76.7946 49.5298H76.243C76.2102 49.5298 76.1766 49.5244 76.1438 49.5144C76.1108 49.5036 76.0859 49.476 76.0693 49.4304L75.772 48.2835C75.7097 48.0645 75.6211 47.916 75.5051 47.8373C75.3893 47.7587 75.2221 47.7193 75.0027 47.7193H74.2713V49.3997C74.2713 49.4575 74.2621 49.4937 74.2435 49.508C74.225 49.5223 74.1868 49.5298 74.1289 49.5298H73.6448C73.5998 49.5298 73.5647 49.5217 73.5396 49.5049C73.5147 49.4883 73.5025 49.4532 73.5025 49.3997V45.5307C73.5025 45.4107 73.5276 45.3219 73.577 45.264C73.6268 45.2061 73.7172 45.1775 73.85 45.1775H75.313C75.5196 45.1775 75.7076 45.2072 75.877 45.2671C76.0465 45.3273 76.1909 45.4128 76.3111 45.5242C76.4312 45.6359 76.5229 45.7683 76.5869 45.9212C76.651 46.0741 76.6829 46.2437 76.6829 46.4296C76.6829 46.6734 76.6244 46.8853 76.5066 47.0654C76.3887 47.2449 76.2345 47.374 76.0444 47.4526V47.4777C76.1895 47.5398 76.2968 47.6242 76.3669 47.7315C76.437 47.8394 76.4933 47.9674 76.5342 48.1162L76.8753 49.3997ZM75.9143 46.4667C75.9143 46.4051 75.9052 46.3387 75.8867 46.2686C75.8681 46.198 75.8336 46.132 75.784 46.0704C75.7346 46.0083 75.6661 45.9573 75.5796 45.9185C75.4925 45.8793 75.3794 45.8596 75.2385 45.8596H74.2775V47.0872H75.1949C75.4472 47.0872 75.63 47.0272 75.7438 46.9071C75.8575 46.7871 75.9143 46.6404 75.9143 46.4667ZM82.903 47.3412C82.903 48.0604 82.7447 48.6161 82.4286 49.0091C82.1126 49.4017 81.6339 49.5978 80.9933 49.5978C80.3691 49.5978 79.9022 49.4086 79.592 49.0303C79.2822 48.6526 79.1272 48.0975 79.1272 47.3661C79.1272 47.0106 79.1739 46.6942 79.2668 46.4173C79.3598 46.1405 79.4899 45.9058 79.6571 45.7135C79.8246 45.5217 80.0232 45.3746 80.2523 45.2731C80.4818 45.1721 80.7352 45.1217 81.0118 45.1217C81.322 45.1217 81.5957 45.1721 81.8337 45.2731C82.0711 45.3746 82.2686 45.5217 82.4255 45.7135C82.5826 45.9058 82.7017 46.1395 82.7818 46.414C82.8625 46.6894 82.903 46.998 82.903 47.3412ZM82.1215 47.3661C82.1215 47.1594 82.1062 46.9618 82.0754 46.7738C82.0445 46.5856 81.9883 46.4194 81.908 46.275C81.8273 46.1299 81.7156 46.0152 81.5733 45.9307C81.4305 45.8457 81.2477 45.8037 81.024 45.8037C80.8343 45.8037 80.6687 45.8442 80.5285 45.9243C80.3876 46.005 80.2714 46.1156 80.1778 46.2563C80.0848 46.3966 80.0157 46.5591 79.9701 46.7429C79.925 46.9268 79.9022 47.1243 79.9022 47.3347C79.9022 47.5744 79.9196 47.7917 79.9547 47.9861C79.9904 48.1803 80.0508 48.3468 80.1379 48.4847C80.2247 48.6236 80.3392 48.7302 80.4818 48.8045C80.6245 48.879 80.8016 48.9162 81.0118 48.9162C81.2228 48.9162 81.3996 48.8726 81.5419 48.7861C81.6849 48.6989 81.799 48.5841 81.8862 48.4418C81.9727 48.2988 82.0339 48.1347 82.069 47.9488C82.1041 47.7628 82.1215 47.5684 82.1215 47.3661ZM86.1966 49.3997C86.1966 49.4575 86.187 49.4937 86.1683 49.508C86.1499 49.5223 86.1115 49.5298 86.0536 49.5298H85.5888C85.5431 49.5298 85.508 49.5217 85.4831 49.5049C85.4587 49.4883 85.446 49.4532 85.446 49.3997V45.5307C85.446 45.4149 85.4709 45.3273 85.5203 45.2671C85.5703 45.2072 85.6612 45.1775 85.7934 45.1775H87.2692C87.4758 45.1775 87.6649 45.2092 87.8365 45.2731C88.0081 45.3373 88.1546 45.4282 88.2762 45.546C88.3984 45.6641 88.4935 45.8048 88.5615 45.9679C88.63 46.131 88.664 46.3101 88.664 46.5039C88.664 46.6155 88.6466 46.7487 88.6115 46.904C88.5758 47.059 88.5057 47.2088 88.4005 47.3538C88.2949 47.4983 88.1471 47.6211 87.9571 47.7226C87.7668 47.824 87.5171 47.8745 87.2069 47.8745H86.1966V49.3997ZM87.8826 46.5539C87.8826 46.4837 87.8716 46.4072 87.8487 46.3244C87.8259 46.2414 87.7865 46.1661 87.7307 46.098C87.6751 46.0301 87.5974 45.9733 87.4987 45.9276C87.3993 45.8818 87.2733 45.8596 87.1204 45.8596H86.2024V47.236H87.1326C87.3928 47.236 87.5831 47.1716 87.7031 47.0436C87.8232 46.9156 87.8826 46.7521 87.8826 46.5539ZM94.0592 49.3874C94.0592 49.4324 94.0511 49.4675 94.0341 49.4926C94.0182 49.5175 93.9827 49.5298 93.9289 49.5298H92.1622C91.9429 49.5298 91.7632 49.4988 91.6225 49.4368C91.4822 49.3745 91.3695 49.2924 91.2847 49.1886C91.2002 49.0857 91.1413 48.9676 91.1083 48.8354C91.0749 48.7033 91.0583 48.5644 91.0583 48.42V46.2995C91.0583 46.1548 91.078 46.0152 91.1172 45.8814C91.1566 45.7465 91.2209 45.628 91.3096 45.5242C91.3984 45.4213 91.5131 45.3383 91.6538 45.2763C91.7941 45.2146 91.9634 45.1833 92.1622 45.1833H93.8918C93.9455 45.1833 93.9796 45.1949 93.9943 45.2177C94.0086 45.2402 94.0157 45.2763 94.0157 45.3263V45.7166C94.0157 45.7703 94.0086 45.8064 93.9943 45.8249C93.9796 45.8442 93.9455 45.8531 93.8918 45.8531H92.2423C92.0856 45.8531 91.9746 45.8882 91.9109 45.9583C91.8472 46.0289 91.8148 46.1299 91.8148 46.2621V46.9135H93.6874C93.7409 46.9135 93.775 46.9237 93.7893 46.9442C93.8042 46.965 93.8111 47.0044 93.8111 47.0623V47.4032C93.8111 47.4526 93.8042 47.4887 93.7893 47.5115C93.775 47.5346 93.7409 47.5456 93.6874 47.5456H91.8148V48.4509C91.8148 48.5831 91.8487 48.6835 91.9173 48.7514C91.9852 48.8201 92.0937 48.8541 92.2423 48.8541H93.9289C93.9868 48.8541 94.0231 48.8641 94.0375 48.8848C94.0522 48.9056 94.0592 48.9448 94.0592 49.0027V49.3874ZM98.8035 48.581H97.2285L96.9558 49.4239C96.9436 49.4617 96.9255 49.4883 96.9033 49.5049C96.8805 49.5217 96.8444 49.5298 96.795 49.5298H96.2244C96.1787 49.5298 96.1495 49.5165 96.1372 49.4893C96.125 49.4627 96.125 49.4324 96.1372 49.3997L97.4765 45.4748C97.4972 45.4128 97.518 45.3634 97.5387 45.3263C97.5593 45.2889 97.5848 45.2599 97.6161 45.2391C97.6471 45.2184 97.6832 45.203 97.7247 45.1928C97.766 45.1827 97.8153 45.1775 97.8732 45.1775H98.1401C98.2679 45.1775 98.3588 45.1972 98.413 45.2358C98.4667 45.2756 98.514 45.3549 98.5553 45.4748L99.901 49.3997C99.9132 49.4324 99.9143 49.4627 99.9037 49.4893C99.8935 49.5165 99.8659 49.5298 99.8203 49.5298H99.2496C99.2046 49.5298 99.1685 49.5244 99.1413 49.5144C99.1148 49.5036 99.093 49.476 99.0766 49.4304L98.8035 48.581ZM97.4144 47.9365H98.6049L98.2829 46.8948L98.0226 46.0146H97.9913L97.7373 46.8764L97.4144 47.9365ZM102.946 46.318V49.3997C102.946 49.4575 102.937 49.4937 102.918 49.508C102.9 49.5223 102.862 49.5298 102.804 49.5298H102.345C102.299 49.5298 102.264 49.5217 102.239 49.5049C102.215 49.4883 102.202 49.4532 102.202 49.3997V45.5616C102.202 45.4298 102.228 45.3335 102.28 45.2731C102.331 45.2136 102.425 45.1833 102.562 45.1833H102.779C102.886 45.1833 102.965 45.203 103.014 45.2422C103.064 45.2817 103.122 45.3532 103.188 45.4564L104.422 47.5084L104.949 48.4013H104.974V45.314C104.974 45.2599 104.984 45.2248 105.005 45.2082C105.025 45.1918 105.062 45.1833 105.117 45.1833H105.575C105.629 45.1833 105.666 45.1918 105.687 45.2082C105.707 45.2248 105.718 45.2599 105.718 45.314V49.1579C105.718 49.2778 105.693 49.3698 105.643 49.4337C105.594 49.4978 105.499 49.5298 105.358 49.5298H105.141C105.087 49.5298 105.042 49.5254 105.005 49.5175C104.968 49.509 104.934 49.4947 104.906 49.4739C104.876 49.4532 104.849 49.4256 104.822 49.3901C104.795 49.355 104.765 49.3129 104.732 49.2631L103.492 47.2046L102.971 46.318H102.946ZM112.229 46.318V49.3997C112.229 49.4575 112.22 49.4937 112.201 49.508C112.182 49.5223 112.144 49.5298 112.086 49.5298H111.627C111.582 49.5298 111.547 49.5217 111.522 49.5049C111.497 49.4883 111.485 49.4532 111.485 49.3997V45.5616C111.485 45.4298 111.511 45.3335 111.562 45.2731C111.614 45.2136 111.708 45.1833 111.844 45.1833H112.062C112.169 45.1833 112.248 45.203 112.297 45.2422C112.347 45.2817 112.404 45.3532 112.471 45.4564L113.705 47.5084L114.231 48.4013H114.256V45.314C114.256 45.2599 114.267 45.2248 114.288 45.2082C114.308 45.1918 114.345 45.1833 114.399 45.1833H114.858C114.911 45.1833 114.948 45.1918 114.969 45.2082C114.99 45.2248 115 45.2599 115 45.314V49.1579C115 49.2778 114.975 49.3698 114.926 49.4337C114.876 49.4978 114.781 49.5298 114.641 49.5298H114.423C114.37 49.5298 114.324 49.5254 114.288 49.5175C114.25 49.509 114.217 49.4947 114.188 49.4739C114.159 49.4532 114.131 49.4256 114.104 49.3901C114.078 49.355 114.047 49.3129 114.014 49.2631L112.775 47.2046L112.254 46.318H112.229ZM121.319 47.3412C121.319 48.0604 121.161 48.6161 120.845 49.0091C120.529 49.4017 120.05 49.5978 119.409 49.5978C118.785 49.5978 118.318 49.4086 118.009 49.0303C117.699 48.6526 117.543 48.0975 117.543 47.3661C117.543 47.0106 117.59 46.6942 117.683 46.4173C117.776 46.1405 117.906 45.9058 118.074 45.7135C118.241 45.5217 118.44 45.3746 118.668 45.2731C118.898 45.1721 119.151 45.1217 119.428 45.1217C119.738 45.1217 120.012 45.1721 120.25 45.2731C120.487 45.3746 120.685 45.5217 120.842 45.7135C120.999 45.9058 121.118 46.1395 121.198 46.414C121.279 46.6894 121.319 46.998 121.319 47.3412ZM120.538 47.3661C120.538 47.1594 120.523 46.9618 120.492 46.7738C120.46 46.5856 120.404 46.4194 120.324 46.275C120.244 46.1299 120.132 46.0152 119.989 45.9307C119.847 45.8457 119.664 45.8037 119.441 45.8037C119.25 45.8037 119.085 45.8442 118.945 45.9243C118.804 46.005 118.687 46.1156 118.595 46.2563C118.501 46.3966 118.432 46.5591 118.386 46.7429C118.341 46.9268 118.318 47.1243 118.318 47.3347C118.318 47.5744 118.336 47.7917 118.371 47.9861C118.406 48.1803 118.467 48.3468 118.554 48.4847C118.641 48.6236 118.756 48.7302 118.898 48.8045C119.041 48.879 119.217 48.9162 119.428 48.9162C119.639 48.9162 119.816 48.8726 119.958 48.7861C120.101 48.6989 120.215 48.5841 120.303 48.4418C120.389 48.2988 120.45 48.1347 120.485 47.9488C120.52 47.7628 120.538 47.5684 120.538 47.3661ZM127.235 49.3997C127.244 49.4283 127.241 49.4575 127.229 49.4862C127.216 49.5154 127.192 49.5298 127.155 49.5298H126.603C126.57 49.5298 126.537 49.5244 126.504 49.5144C126.471 49.5036 126.446 49.476 126.429 49.4304L126.132 48.2835C126.069 48.0645 125.981 47.916 125.865 47.8373C125.75 47.7587 125.582 47.7193 125.363 47.7193H124.631V49.3997C124.631 49.4575 124.622 49.4937 124.603 49.508C124.585 49.5223 124.547 49.5298 124.489 49.5298H124.005C123.959 49.5298 123.924 49.5217 123.9 49.5049C123.875 49.4883 123.863 49.4532 123.863 49.3997V45.5307C123.863 45.4107 123.887 45.3219 123.937 45.264C123.986 45.2061 124.077 45.1775 124.21 45.1775H125.673C125.88 45.1775 126.068 45.2072 126.237 45.2671C126.407 45.3273 126.551 45.4128 126.671 45.5242C126.791 45.6359 126.883 45.7683 126.947 45.9212C127.011 46.0741 127.043 46.2437 127.043 46.4296C127.043 46.6734 126.984 46.8853 126.866 47.0654C126.749 47.2449 126.594 47.374 126.405 47.4526V47.4777C126.549 47.5398 126.656 47.6242 126.727 47.7315C126.797 47.8394 126.853 47.9674 126.894 48.1162L127.235 49.3997ZM126.274 46.4667C126.274 46.4051 126.265 46.3387 126.246 46.2686C126.228 46.198 126.194 46.132 126.144 46.0704C126.094 46.0083 126.026 45.9573 125.939 45.9185C125.853 45.8793 125.739 45.8596 125.599 45.8596H124.637V47.0872H125.555C125.807 47.0872 125.99 47.0272 126.103 46.9071C126.217 46.7871 126.274 46.6404 126.274 46.4667ZM133.157 46.5352H133.12L132.791 47.3783L132.24 48.7489C132.194 48.8562 132.15 48.9284 132.107 48.9655C132.063 49.0027 131.99 49.0214 131.886 49.0214H131.607C131.504 49.0214 131.431 49.0027 131.387 48.9655C131.344 48.9284 131.302 48.8562 131.26 48.7489L130.715 47.4404L130.38 46.6097H130.343V49.3997C130.343 49.4575 130.332 49.4937 130.312 49.508C130.291 49.5223 130.254 49.5298 130.2 49.5298H129.754C129.708 49.5298 129.673 49.5223 129.648 49.508C129.623 49.4937 129.611 49.4575 129.611 49.3997V45.5616C129.611 45.4336 129.636 45.3383 129.685 45.2763C129.735 45.2146 129.83 45.1833 129.971 45.1833H130.225C130.332 45.1833 130.413 45.202 130.466 45.2391C130.52 45.2763 130.57 45.3512 130.616 45.4628L131.353 47.2789L131.738 48.2399H131.763L132.147 47.2731L132.879 45.4628C132.924 45.3512 132.976 45.2763 133.034 45.2391C133.092 45.202 133.174 45.1833 133.281 45.1833H133.517C133.649 45.1833 133.742 45.2126 133.796 45.2705C133.85 45.3283 133.877 45.4213 133.877 45.5493V49.3997C133.877 49.4575 133.867 49.4937 133.846 49.508C133.825 49.5223 133.788 49.5298 133.734 49.5298H133.294C133.248 49.5298 133.214 49.5223 133.192 49.508C133.169 49.4937 133.157 49.4575 133.157 49.3997V46.5352ZM136.463 46.2995C136.463 46.1256 136.493 45.9668 136.55 45.8224C136.608 45.6774 136.695 45.5525 136.811 45.4472C136.926 45.3416 137.072 45.2599 137.248 45.202C137.423 45.1445 137.629 45.1152 137.865 45.1152C137.976 45.1152 138.092 45.1217 138.212 45.1339C138.332 45.1462 138.452 45.1632 138.572 45.1833C138.691 45.204 138.807 45.231 138.919 45.264C139.03 45.297 139.134 45.3342 139.228 45.3757C139.262 45.3964 139.283 45.4149 139.29 45.4313C139.299 45.4479 139.295 45.4771 139.278 45.5184L139.13 45.9397C139.113 45.9855 139.098 46.0104 139.083 46.0146C139.068 46.0183 139.045 46.0162 139.011 46.0083C138.805 45.9382 138.603 45.8851 138.404 45.85C138.206 45.815 138.022 45.7973 137.852 45.7973C137.637 45.7973 137.481 45.8419 137.384 45.9307C137.287 46.0193 137.238 46.1235 137.238 46.2437C137.238 46.318 137.256 46.3854 137.291 46.4449C137.326 46.5049 137.383 46.5628 137.461 46.6186C137.54 46.6744 137.638 46.7303 137.756 46.7865C137.874 46.8417 138.018 46.9029 138.187 46.9693C138.364 47.0436 138.534 47.1191 138.695 47.1955C138.856 47.2721 138.999 47.3619 139.123 47.4655C139.247 47.5684 139.345 47.6896 139.418 47.8278C139.49 47.9664 139.526 48.1347 139.526 48.3335C139.526 48.548 139.486 48.735 139.405 48.8944C139.324 49.0533 139.215 49.1845 139.077 49.288C138.938 49.3911 138.774 49.4685 138.584 49.5202C138.394 49.5723 138.189 49.5978 137.97 49.5978C137.71 49.5978 137.437 49.5733 137.152 49.5233C136.866 49.4739 136.602 49.3831 136.358 49.2509C136.3 49.226 136.288 49.1764 136.321 49.1021L136.507 48.6802C136.536 48.6182 136.581 48.5995 136.643 48.6246C136.842 48.7074 137.047 48.7765 137.26 48.8323C137.473 48.8879 137.679 48.9162 137.877 48.9162C138.191 48.9162 138.413 48.862 138.544 48.7547C138.674 48.6474 138.739 48.513 138.739 48.3515C138.739 48.265 138.722 48.1884 138.689 48.1224C138.656 48.056 138.605 47.995 138.534 47.9392C138.464 47.8834 138.375 47.8299 138.268 47.7784C138.16 47.7267 138.032 47.6721 137.883 47.6143C137.66 47.5271 137.459 47.4404 137.282 47.3538C137.104 47.2667 136.955 47.1727 136.835 47.0712C136.716 46.9704 136.624 46.8566 136.559 46.7303C136.495 46.6043 136.463 46.4609 136.463 46.2995ZM148.561 46.5352H148.524L148.195 47.3783L147.643 48.7489C147.598 48.8562 147.554 48.9284 147.51 48.9655C147.467 49.0027 147.393 49.0214 147.29 49.0214H147.011C146.908 49.0214 146.834 49.0027 146.791 48.9655C146.748 48.9284 146.705 48.8562 146.664 48.7489L146.118 47.4404L145.784 46.6097H145.746V49.3997C145.746 49.4575 145.736 49.4937 145.715 49.508C145.694 49.5223 145.657 49.5298 145.603 49.5298H145.157C145.112 49.5298 145.077 49.5223 145.052 49.508C145.027 49.4937 145.015 49.4575 145.015 49.3997V45.5616C145.015 45.4336 145.039 45.3383 145.089 45.2763C145.139 45.2146 145.234 45.1833 145.375 45.1833H145.629C145.736 45.1833 145.817 45.202 145.87 45.2391C145.924 45.2763 145.974 45.3512 146.019 45.4628L146.757 47.2789L147.141 48.2399H147.166L147.55 47.2731L148.282 45.4628C148.328 45.3512 148.379 45.2763 148.437 45.2391C148.495 45.202 148.577 45.1833 148.685 45.1833H148.92C149.053 45.1833 149.146 45.2126 149.2 45.2705C149.253 45.3283 149.28 45.4213 149.28 45.5493V49.3997C149.28 49.4575 149.27 49.4937 149.249 49.508C149.229 49.5223 149.191 49.5298 149.138 49.5298H148.697C148.652 49.5298 148.618 49.5223 148.595 49.508C148.572 49.4937 148.561 49.4575 148.561 49.3997V46.5352ZM154.948 49.3874C154.948 49.4324 154.94 49.4675 154.924 49.4926C154.907 49.5175 154.872 49.5298 154.818 49.5298H153.051C152.832 49.5298 152.652 49.4988 152.512 49.4368C152.371 49.3745 152.259 49.2924 152.174 49.1886C152.089 49.0857 152.03 48.9676 151.997 48.8354C151.964 48.7033 151.947 48.5644 151.947 48.42V46.2995C151.947 46.1548 151.967 46.0152 152.006 45.8814C152.046 45.7465 152.11 45.628 152.199 45.5242C152.287 45.4213 152.402 45.3383 152.543 45.2763C152.683 45.2146 152.852 45.1833 153.051 45.1833H154.781C154.835 45.1833 154.869 45.1949 154.883 45.2177C154.898 45.2402 154.905 45.2763 154.905 45.3263V45.7166C154.905 45.7703 154.898 45.8064 154.883 45.8249C154.869 45.8442 154.835 45.8531 154.781 45.8531H153.131C152.975 45.8531 152.864 45.8882 152.8 45.9583C152.736 46.0289 152.704 46.1299 152.704 46.2621V46.9135H154.576C154.63 46.9135 154.664 46.9237 154.678 46.9442C154.693 46.965 154.7 47.0044 154.7 47.0623V47.4032C154.7 47.4526 154.693 47.4887 154.678 47.5115C154.664 47.5346 154.63 47.5456 154.576 47.5456H152.704V48.4509C152.704 48.5831 152.738 48.6835 152.806 48.7514C152.874 48.8201 152.983 48.8541 153.131 48.8541H154.818C154.876 48.8541 154.912 48.8641 154.927 48.8848C154.941 48.9056 154.948 48.9448 154.948 49.0027V49.3874ZM160.393 49.3874C160.393 49.4324 160.385 49.4675 160.368 49.4926C160.352 49.5175 160.317 49.5298 160.263 49.5298H158.496C158.277 49.5298 158.097 49.4988 157.957 49.4368C157.816 49.3745 157.704 49.2924 157.619 49.1886C157.534 49.0857 157.475 48.9676 157.442 48.8354C157.409 48.7033 157.392 48.5644 157.392 48.42V46.2995C157.392 46.1548 157.412 46.0152 157.451 45.8814C157.491 45.7465 157.555 45.628 157.644 45.5242C157.732 45.4213 157.847 45.3383 157.987 45.2763C158.128 45.2146 158.298 45.1833 158.496 45.1833H160.226C160.28 45.1833 160.313 45.1949 160.328 45.2177C160.343 45.2402 160.35 45.2763 160.35 45.3263V45.7166C160.35 45.7703 160.343 45.8064 160.328 45.8249C160.313 45.8442 160.28 45.8531 160.226 45.8531H158.576C158.419 45.8531 158.309 45.8882 158.245 45.9583C158.181 46.0289 158.149 46.1299 158.149 46.2621V46.9135H160.021C160.075 46.9135 160.109 46.9237 160.123 46.9442C160.138 46.965 160.145 47.0044 160.145 47.0623V47.4032C160.145 47.4526 160.138 47.4887 160.123 47.5115C160.109 47.5346 160.075 47.5456 160.021 47.5456H158.149V48.4509C158.149 48.5831 158.183 48.6835 158.251 48.7514C158.319 48.8201 158.428 48.8541 158.576 48.8541H160.263C160.321 48.8541 160.357 48.8641 160.371 48.8848C160.386 48.9056 160.393 48.9448 160.393 49.0027V49.3874ZM165.776 45.7353C165.776 45.7766 165.769 45.8054 165.754 45.8224C165.74 45.8388 165.71 45.8467 165.664 45.8467H164.487V49.3997C164.487 49.4575 164.477 49.4937 164.459 49.508C164.44 49.5223 164.402 49.5298 164.344 49.5298H163.86C163.811 49.5298 163.774 49.5217 163.752 49.5049C163.729 49.4883 163.718 49.4532 163.718 49.3997V45.8467H162.564C162.519 45.8467 162.49 45.8388 162.478 45.8224C162.465 45.8054 162.459 45.7766 162.459 45.7353V45.3076C162.459 45.2619 162.465 45.231 162.478 45.2146C162.49 45.1982 162.519 45.1897 162.564 45.1897H165.664C165.71 45.1897 165.74 45.1982 165.754 45.2146C165.769 45.231 165.776 45.2619 165.776 45.3076V45.7353ZM167.978 46.2995C167.978 46.1256 168.007 45.9668 168.065 45.8224C168.123 45.6774 168.21 45.5525 168.325 45.4472C168.441 45.3416 168.587 45.2599 168.763 45.202C168.939 45.1445 169.144 45.1152 169.379 45.1152C169.491 45.1152 169.607 45.1217 169.727 45.1339C169.847 45.1462 169.966 45.1632 170.086 45.1833C170.206 45.204 170.322 45.231 170.433 45.264C170.545 45.297 170.648 45.3342 170.743 45.3757C170.776 45.3964 170.797 45.4149 170.806 45.4313C170.814 45.4479 170.81 45.4771 170.793 45.5184L170.644 45.9397C170.628 45.9855 170.612 46.0104 170.598 46.0146C170.584 46.0183 170.56 46.0162 170.526 46.0083C170.32 45.9382 170.117 45.8851 169.919 45.85C169.72 45.815 169.537 45.7973 169.367 45.7973C169.152 45.7973 168.996 45.8419 168.899 45.9307C168.802 46.0193 168.754 46.1235 168.754 46.2437C168.754 46.318 168.771 46.3854 168.806 46.4449C168.841 46.5049 168.898 46.5628 168.977 46.6186C169.055 46.6744 169.153 46.7303 169.271 46.7865C169.389 46.8417 169.532 46.9029 169.702 46.9693C169.88 47.0436 170.049 47.1191 170.21 47.1955C170.372 47.2721 170.514 47.3619 170.638 47.4655C170.762 47.5684 170.86 47.6896 170.933 47.8278C171.005 47.9664 171.041 48.1347 171.041 48.3335C171.041 48.548 171.001 48.735 170.92 48.8944C170.84 49.0533 170.73 49.1845 170.592 49.288C170.453 49.3911 170.289 49.4685 170.099 49.5202C169.908 49.5723 169.704 49.5978 169.485 49.5978C169.224 49.5978 168.952 49.5733 168.666 49.5233C168.381 49.4739 168.117 49.3831 167.873 49.2509C167.815 49.226 167.803 49.1764 167.836 49.1021L168.022 48.6802C168.051 48.6182 168.096 48.5995 168.158 48.6246C168.357 48.7074 168.562 48.7765 168.775 48.8323C168.988 48.8879 169.193 48.9162 169.392 48.9162C169.706 48.9162 169.928 48.862 170.058 48.7547C170.189 48.6474 170.254 48.513 170.254 48.3515C170.254 48.265 170.237 48.1884 170.204 48.1224C170.171 48.056 170.119 47.995 170.049 47.9392C169.979 47.8834 169.89 47.8299 169.782 47.7784C169.675 47.7267 169.547 47.6721 169.398 47.6143C169.175 47.5271 168.975 47.4404 168.797 47.3538C168.619 47.2667 168.47 47.1727 168.35 47.0712C168.23 46.9704 168.138 46.8566 168.074 46.7303C168.01 46.6043 167.978 46.4609 167.978 46.2995Z" fill="white"/>
</svg>
