<?xml version="1.0" encoding="utf-8"?>
<svg xmlns="http://www.w3.org/2000/svg" xmlns:xlink="http://www.w3.org/1999/xlink" style="display: none;">
    <symbol viewBox="0 0 22 22" id="basket">
        <path d="M9.2 17.8c-1.1 0-1.9.9-1.9 2.1 0 1.2.9 2.1 1.9 2.1s1.9-.9 1.9-2.1c.1-1.1-.8-2.1-1.9-2.1zm0 3c-.5 0-.9-.4-.9-.9s.4-.9.9-.9.9.4.9.9-.4.9-.9.9zm6.8-3c-1.1 0-1.9.9-1.9 2.1 0 1.2.9 2.1 1.9 2.1 1.1 0 1.9-.9 1.9-2.1 0-1.1-.8-2.1-1.9-2.1zm0 3c-.5 0-.9-.4-.9-.9s.4-.9.9-.9.9.4.9.9-.4.9-.9.9zm.5-14H8.7c-.3 0-.5.3-.5.6s.2.6.5.6h7.7c.4 0 .6-.3.6-.6s-.2-.6-.5-.6zm-.4 3H9.2c-.3 0-.5.3-.5.6s.2.6.5.6h6.9c.3 0 .5-.3.5-.6s-.2-.6-.5-.6z"/>
        <path d="M21.8 4.2c-.2-.3-.5-.4-.8-.4H4.1L3.8 2c-.1-.4-.4-.7-.7-.8L.8 0C.5-.1.2.1 0 .4c-.1.3 0 .6.3.8l2.4 1.1L5.3 16c.1.5.5.9 1.1.9h12.9c.3 0 .5-.3.5-.6s-.2-.6-.5-.6H6.4L6 14h13.4c.5 0 1-.4 1.1-.9L22 5.2c0-.4 0-.7-.2-1zm-2.4 8.7H5.8l-1.5-8h16.6l-1.5 8z"/>
    </symbol>
    <symbol viewBox="0 0 36 18" id="car">
        <path d="M35.6 7.8c-.3-.4-.8-.7-1.3-.8l-6.7-.9L21.5.8c-.6-.5-1.3-.8-2.1-.8H9.7c-.8 0-1.6.4-2 1.2L4.8 5.7l-3.3 1C.5 7.1-.1 8.2 0 9.3l.5 3.3c.2 1.5 1.4 2.5 2.8 2.5h3.9c.2 1.7 1.6 2.9 3.3 2.9 1.7 0 3-1.3 3.3-2.9h10.8c.3 1.7 1.6 2.9 3.3 2.9s3-1.3 3.3-2.9h2c1.1 0 2.1-.9 2.3-2l.5-3.8c.1-.5-.1-1.1-.4-1.5zm-25.1 9.1c-1.3 0-2.3-1.1-2.3-2.4 0-1.3 1-2.4 2.3-2.4 1.3 0 2.3 1.1 2.3 2.4 0 1.4-1.1 2.4-2.3 2.4zm17.4 0c-1.3 0-2.3-1.1-2.3-2.4 0-1.3 1-2.4 2.3-2.4s2.3 1.1 2.3 2.4c-.1 1.4-1.1 2.4-2.3 2.4zm6.5-4c-.1.7-.6 1.1-1.3 1.1h-2c-.2-1.7-1.6-2.9-3.3-2.9-1.7 0-3 1.3-3.3 2.9H13.8c-.2-1.7-1.6-2.9-3.3-2.9-1.7 0-3 1.3-3.3 2.9H3.3c-.9 0-1.7-.7-1.8-1.6L1 9.1c0-.6.3-1.1.8-1.3l3.5-1.1c.1 0 .2-.1.3-.2l2.9-4.7c.3-.4.7-.7 1.2-.7h9.7c.5 0 1.1.2 1.5.6L27 7.1c.1.1.2.1.3.1l6.9.9c.2 0 .5.2.6.4.1.2.2.4.2.7l-.6 3.7z"/>
        <path d="M21.8 6.6H10c-.3 0-.5.2-.5.5s.2.5.5.5h11.8c.3 0 .5-.2.5-.5s-.2-.5-.5-.5z"/>
    </symbol>
    <symbol viewBox="0 0 10 11" id="login">
        <path d="M5.1 11.7H0C0 8 3.3 8 4 7l.1-.4C3 6.1 2.3 4.9 2.3 3.4 2.3 1.5 3.6 0 5.1 0s2.8 1.5 2.8 3.4c0 1.4-.7 2.6-1.7 3.2l.1.5c.8.9 3.9 1 3.9 4.6H5.1zl49 200"/>
    </symbol>
    <symbol viewBox="0 0 15 15" id="search">
        <path d="M14.6 12.9l-3.3-3.3c-.2-.2-.4-.3-.6-.3 1.6-2.3 1.4-5.5-.7-7.5-2.3-2.3-6-2.3-8.3 0-2.3 2.3-2.3 6 0 8.3 2 2 5.2 2.3 7.5.7 0 .2.2.4.3.6l3.3 3.3c.5.5 1.3.5 1.8 0s.5-1.3 0-1.8zM9 9c-1.7 1.7-4.5 1.7-6.2 0-1.7-1.7-1.7-4.5 0-6.2 1.7-1.7 4.5-1.7 6.2 0 1.7 1.7 1.7 4.5 0 6.2z"/>
    </symbol>
</svg>